G04*
G04 #@! TF.GenerationSoftware,Altium Limited,Altium Designer,23.5.1 (21)*
G04*
G04 Layer_Physical_Order=1*
G04 Layer_Color=255*
%FSLAX44Y44*%
%MOMM*%
G71*
G04*
G04 #@! TF.SameCoordinates,638B95CD-29A4-4EC3-B0C2-DC090694CFED*
G04*
G04*
G04 #@! TF.FilePolarity,Positive*
G04*
G01*
G75*
%ADD12C,0.2000*%
%ADD15R,1.0500X1.3000*%
G04:AMPARAMS|DCode=16|XSize=0.55mm|YSize=0.5mm|CornerRadius=0.0625mm|HoleSize=0mm|Usage=FLASHONLY|Rotation=270.000|XOffset=0mm|YOffset=0mm|HoleType=Round|Shape=RoundedRectangle|*
%AMROUNDEDRECTD16*
21,1,0.5500,0.3750,0,0,270.0*
21,1,0.4250,0.5000,0,0,270.0*
1,1,0.1250,-0.1875,-0.2125*
1,1,0.1250,-0.1875,0.2125*
1,1,0.1250,0.1875,0.2125*
1,1,0.1250,0.1875,-0.2125*
%
%ADD16ROUNDEDRECTD16*%
G04:AMPARAMS|DCode=17|XSize=0.55mm|YSize=0.5mm|CornerRadius=0.0625mm|HoleSize=0mm|Usage=FLASHONLY|Rotation=180.000|XOffset=0mm|YOffset=0mm|HoleType=Round|Shape=RoundedRectangle|*
%AMROUNDEDRECTD17*
21,1,0.5500,0.3750,0,0,180.0*
21,1,0.4250,0.5000,0,0,180.0*
1,1,0.1250,-0.2125,0.1875*
1,1,0.1250,0.2125,0.1875*
1,1,0.1250,0.2125,-0.1875*
1,1,0.1250,-0.2125,-0.1875*
%
%ADD17ROUNDEDRECTD17*%
%ADD18R,0.9621X0.9350*%
%ADD19R,2.1500X1.1000*%
%ADD20R,1.0000X1.1000*%
%ADD21R,1.5000X5.5000*%
%ADD22R,5.5000X1.5000*%
%ADD23R,1.0000X3.2000*%
%ADD24O,0.6000X1.9500*%
%ADD25O,1.9500X0.6000*%
G04:AMPARAMS|DCode=26|XSize=1.3mm|YSize=0.76mm|CornerRadius=0.095mm|HoleSize=0mm|Usage=FLASHONLY|Rotation=90.000|XOffset=0mm|YOffset=0mm|HoleType=Round|Shape=RoundedRectangle|*
%AMROUNDEDRECTD26*
21,1,1.3000,0.5700,0,0,90.0*
21,1,1.1100,0.7600,0,0,90.0*
1,1,0.1900,0.2850,0.5550*
1,1,0.1900,0.2850,-0.5550*
1,1,0.1900,-0.2850,-0.5550*
1,1,0.1900,-0.2850,0.5550*
%
%ADD26ROUNDEDRECTD26*%
%ADD27R,1.2000X1.2000*%
%ADD28R,3.7000X3.7000*%
%ADD29O,0.8500X0.2000*%
%ADD30O,0.2000X0.8500*%
%ADD31R,0.8000X0.8000*%
%ADD32R,1.3000X1.0500*%
%ADD48R,1.8400X1.8400*%
%ADD49C,1.8400*%
%ADD50R,1.5700X1.5700*%
%ADD51C,1.5700*%
%ADD52R,1.8400X1.8400*%
%ADD53R,1.5700X1.5700*%
%ADD56C,0.0010*%
%ADD57C,1.0000*%
%ADD58C,0.5000*%
D12*
X339704Y207994D02*
G03*
X338639Y207883I296J-7994D01*
G01*
X240000Y375790D02*
G03*
X240850Y380033I-10000J4210D01*
G01*
X88750Y151900D02*
X90650Y150000D01*
X110000D01*
X410000Y36000D02*
Y47000D01*
X406000Y51000D02*
X410000Y47000D01*
X399000Y51000D02*
X406000D01*
X390000Y60000D02*
X399000Y51000D01*
X28200Y258000D02*
X83500Y202700D01*
X28200Y258000D02*
Y271800D01*
X20000Y305400D02*
X78500D01*
X452500Y195750D02*
Y205335D01*
X450157Y207679D02*
X452500Y205335D01*
X450157Y207679D02*
Y209843D01*
X439422Y260421D02*
X440000Y261000D01*
X439422Y221735D02*
Y260421D01*
X438843Y221157D02*
X439422Y221735D01*
X435978Y187500D02*
X444250D01*
X432978Y190500D02*
X435978Y187500D01*
X430813Y190500D02*
X432978D01*
X420000Y210000D02*
Y260000D01*
X302000Y200000D02*
X302000Y200000D01*
X302000Y186686D02*
Y200000D01*
Y186686D02*
X306686Y182000D01*
X330881D02*
X348881Y200000D01*
X306686Y182000D02*
X330881D01*
X348881Y200000D02*
X360000D01*
X310000Y190000D02*
X336000Y198433D01*
X471594Y278407D02*
X522907D01*
X528000Y246959D02*
Y273314D01*
X522907Y278407D02*
X528000Y273314D01*
X509780Y200220D02*
Y228739D01*
X528000Y246959D01*
X312000Y160000D02*
X322000Y170000D01*
X310000Y160000D02*
X312000D01*
X270000Y170000D02*
X270250D01*
X271750Y168500D01*
Y168250D02*
Y168500D01*
Y168250D02*
X280657Y159343D01*
Y149343D02*
Y159343D01*
X227250Y179500D02*
Y180000D01*
Y179500D02*
X265219Y141531D01*
X268469D01*
X270000Y140000D01*
X302000Y110000D02*
Y140000D01*
X320000Y90000D02*
X340000D01*
X411868Y127375D02*
X418000Y121243D01*
X391531Y142477D02*
X406633Y127375D01*
X418000Y120686D02*
X427186Y111500D01*
X390000Y146500D02*
X391531Y144969D01*
X545283Y111500D02*
X549750Y115967D01*
X427186Y111500D02*
X545283D01*
X406633Y127375D02*
X411868D01*
X549750Y115967D02*
Y129377D01*
X418000Y120686D02*
Y121243D01*
X541226Y137900D02*
X549750Y129377D01*
X536286Y137900D02*
X541226D01*
X391531Y142477D02*
Y144969D01*
X511686Y162500D02*
X536286Y137900D01*
X495750Y162500D02*
X511686D01*
X477500Y177500D02*
Y195750D01*
X470000Y170000D02*
X477500Y177500D01*
X212750Y179500D02*
Y180000D01*
Y179500D02*
X261282Y130969D01*
Y111282D02*
Y130969D01*
X310000Y60000D02*
X350000Y20000D01*
X310000Y60000D02*
Y80000D01*
X419500Y190750D02*
X420500Y191750D01*
X419500Y190500D02*
Y190750D01*
X419000Y190000D02*
X419500Y190500D01*
X540000Y130000D02*
X540250D01*
X495750Y187500D02*
X499000D01*
X503083Y191583D01*
Y193524D01*
X509780Y200220D01*
X530000Y130000D02*
X540000D01*
X510000Y150000D02*
X530000Y130000D01*
X507500Y121000D02*
X540000D01*
X487500Y141000D02*
X507500Y121000D01*
X487500Y141000D02*
Y144250D01*
X470000Y100000D02*
X480000D01*
X270000Y302500D02*
Y310333D01*
X268000Y312333D02*
X270000Y310333D01*
X268000Y312333D02*
Y323314D01*
X260000Y331314D02*
X268000Y323314D01*
X260000Y331314D02*
Y340000D01*
X212600Y310000D02*
X220000Y317400D01*
Y340000D01*
X167657Y185800D02*
X186700D01*
X230000Y142500D01*
X157500Y209443D02*
X163258Y215200D01*
X230000Y122500D02*
Y142500D01*
X157500Y195957D02*
X167657Y185800D01*
X157500Y195957D02*
Y209443D01*
X163258Y215200D02*
X164414D01*
X311951Y261320D02*
X316585Y265954D01*
Y268000D01*
X311951Y253314D02*
Y261320D01*
Y253314D02*
X325265Y240000D01*
X410000Y47000D02*
Y104000D01*
X287250Y338750D02*
Y340000D01*
Y338750D02*
X294470Y331531D01*
X298469D01*
X300000Y330000D01*
X405700Y360000D02*
X420000Y374300D01*
X330000Y360000D02*
X405700D01*
X332500Y248000D02*
X340332D01*
X342790Y245542D01*
X346879D01*
X348410Y244011D01*
X368398Y243166D02*
X391989Y219575D01*
X368398Y243166D02*
Y246651D01*
X366867Y248181D02*
X368398Y246651D01*
X332500Y232000D02*
X347318D01*
X349318Y230000D01*
X360000D01*
X325265Y240000D02*
X332500D01*
X318000Y217500D02*
Y217621D01*
X319848Y219468D02*
X369468D01*
X318000Y217621D02*
X319848Y219468D01*
X314929Y205336D02*
X315515Y204750D01*
X320485D01*
X338639Y207883D01*
X310000Y210265D02*
X314929Y205336D01*
X339704Y207994D02*
X379468Y209468D01*
X310000Y210265D02*
Y217500D01*
X169350Y150000D02*
X171250Y151900D01*
X150000Y150000D02*
X169350D01*
X365814Y154500D02*
X410000D01*
X360314Y160000D02*
X365814Y154500D01*
X360000Y160000D02*
X360314D01*
X410000Y140000D02*
X411250D01*
X430000Y121250D01*
Y120000D02*
Y121250D01*
X174250Y55750D02*
Y102258D01*
X185000Y113008D02*
Y158643D01*
X181000Y162642D02*
X185000Y158643D01*
X181000Y162642D02*
Y172800D01*
X174250Y102258D02*
X185000Y113008D01*
X171250Y177300D02*
X176500D01*
X181000Y172800D01*
X174250Y55750D02*
X210000Y20000D01*
X166000Y228100D02*
X171250D01*
X142000Y204100D02*
X166000Y228100D01*
X142000Y77750D02*
Y204100D01*
Y77750D02*
X149750Y70000D01*
X150000D01*
X269750Y179000D02*
X270000D01*
X249265Y199485D02*
X269750Y179000D01*
X210515Y199485D02*
X249265D01*
X190000Y220000D02*
X210515Y199485D01*
X245569Y288000D02*
Y288828D01*
X240000Y294398D02*
X245569Y288828D01*
X240850Y380033D02*
Y380794D01*
X240000Y294398D02*
Y375790D01*
X240850Y380794D02*
X250906Y390850D01*
X245569Y288000D02*
X247500D01*
X250906Y390850D02*
X289893D01*
X290000Y60000D02*
Y80000D01*
X77914Y7000D02*
X268314D01*
X60328Y24585D02*
X77914Y7000D01*
X60328Y24585D02*
Y78829D01*
X268314Y7000D02*
X290000Y28686D01*
X60328Y78829D02*
X61500Y80000D01*
X70500D01*
X290000Y28686D02*
Y60000D01*
X332500Y272000D02*
X416750D01*
X419750Y269000D01*
X420000D01*
X332500Y280000D02*
X429750D01*
X439750Y270000D01*
X440000D01*
X410000Y190000D02*
Y190250D01*
X374650Y225601D02*
X410000Y190250D01*
X374650Y225601D02*
Y229085D01*
X339735Y264000D02*
X374650Y229085D01*
X332500Y264000D02*
X339735D01*
X171250Y202700D02*
X176500D01*
X199200Y180000D01*
X212750D01*
X338000Y140000D02*
X350000D01*
X360000Y130000D01*
X374665Y182500D02*
X444250D01*
X372165Y180000D02*
X374665Y182500D01*
X370000Y180000D02*
X372165D01*
X438992Y167500D02*
X444250D01*
X417500Y146250D02*
X417743D01*
X411250Y140000D02*
X417500Y146250D01*
X417743D02*
X438992Y167500D01*
X459750Y260000D02*
X460000D01*
X454250Y265500D02*
X459750Y260000D01*
X454250Y265500D02*
Y272377D01*
X473773Y291900D01*
X580000D01*
X489000Y73250D02*
Y100000D01*
Y46500D02*
Y73250D01*
X482500Y40000D02*
X489000Y46500D01*
X477500Y40000D02*
X482500D01*
X556500D02*
X562500D01*
X550000Y46500D02*
X556500Y40000D01*
X550000Y46500D02*
Y80000D01*
X500000Y267154D02*
X514989D01*
X517835Y270000D01*
X520000D01*
X480000D02*
X497154D01*
X500000Y267154D01*
X460000Y269000D02*
X460500Y269500D01*
X479500D01*
X480000Y270000D01*
Y230500D02*
Y261000D01*
X482500Y195750D02*
Y228000D01*
X500000Y211500D02*
Y252846D01*
X487500Y199000D02*
X500000Y211500D01*
X487500Y195750D02*
Y199000D01*
X537943Y141900D02*
X580000D01*
X512343Y167500D02*
X537943Y141900D01*
X495750Y167500D02*
X512343D01*
X515500Y170000D02*
X531000D01*
X513000Y172500D02*
X515500Y170000D01*
X495750Y172500D02*
X513000D01*
X540000Y170000D02*
X550000D01*
X539000Y199750D02*
Y200000D01*
Y199750D02*
X540500Y198250D01*
X540750D01*
X569150Y169850D01*
X577450D01*
X580000Y167300D01*
X530000Y199750D02*
Y200000D01*
X507750Y177500D02*
X530000Y199750D01*
X495750Y177500D02*
X507750D01*
X538974Y218100D02*
X580000D01*
X503373Y182500D02*
X538974Y218100D01*
X495750Y182500D02*
X503373D01*
X459000Y230000D02*
X468828D01*
X472500Y195750D02*
Y226329D01*
X468828Y230000D02*
X472500Y226329D01*
X420500Y191750D02*
X420750D01*
X459000Y230000D01*
X331000Y164757D02*
Y175243D01*
Y164757D02*
X353879Y141879D01*
X383122D02*
X410000Y115000D01*
X353879Y141879D02*
X383122D01*
X410000Y104000D02*
Y115000D01*
X331000Y175243D02*
X345758Y190000D01*
X410000D01*
X370000Y36000D02*
Y104000D01*
X290000Y80000D02*
Y80250D01*
X291500Y81750D01*
X291750D01*
X314000Y104000D01*
X370000D01*
X294000Y84250D02*
Y217500D01*
X230000Y110000D02*
X251250D01*
X281000Y80250D01*
Y80000D02*
Y80250D01*
X180000Y69000D02*
X209000D01*
X230000Y90000D01*
Y110000D01*
Y25000D02*
Y45000D01*
X223500Y51500D02*
X230000Y45000D01*
X206875Y51500D02*
X223500D01*
X198375Y60000D02*
X206875Y51500D01*
X180000Y60000D02*
X198375D01*
X280500Y59500D02*
X281000Y60000D01*
X280500Y30500D02*
Y59500D01*
X280000Y30000D02*
X280500Y30500D01*
X230000Y25000D02*
X235000Y30000D01*
X280000D01*
X262000Y302500D02*
Y310269D01*
X260000Y312269D02*
X262000Y310269D01*
X260000Y312269D02*
Y320000D01*
X278000Y295265D02*
Y302500D01*
Y268000D02*
Y295265D01*
X270000Y260000D02*
X278000Y268000D01*
X292000Y227333D02*
X294000Y225332D01*
X292000Y227333D02*
Y255617D01*
X294000Y217500D02*
Y225332D01*
X292000Y255617D02*
X302000Y265618D01*
Y302500D01*
X286000Y309735D02*
Y338750D01*
X296485Y315250D02*
X302000Y309735D01*
Y302500D02*
Y309735D01*
X291515Y315250D02*
X296485D01*
X286000Y309735D02*
X291515Y315250D01*
X286000Y302500D02*
Y309735D01*
X294000Y295265D02*
Y302500D01*
X288485Y289750D02*
X294000Y295265D01*
X283515Y289750D02*
X288485D01*
X278000Y295265D02*
X283515Y289750D01*
X318000Y302500D02*
X318766Y303265D01*
Y328765D01*
X319743Y329743D01*
X289893Y390850D02*
X300743Y380000D01*
X317300D01*
X280800D02*
X332500Y328300D01*
Y288000D02*
Y328300D01*
X255400Y380000D02*
X272839Y362561D01*
X280682D01*
X310000Y333243D01*
Y302500D02*
Y333243D01*
X272750Y314986D02*
Y340000D01*
Y314986D02*
X278000Y309735D01*
Y302500D02*
Y309735D01*
X286000Y338750D02*
X287250Y340000D01*
X97250Y298750D02*
Y300000D01*
Y298750D02*
X101500Y294500D01*
X131542D01*
X221292Y204750D02*
X280485D01*
X286000Y210265D01*
X131542Y294500D02*
X221292Y204750D01*
X286000Y210265D02*
Y217500D01*
X171250Y228100D02*
X175750Y223600D01*
X184235D01*
X187835Y220000D01*
X190000D01*
X270000Y217500D02*
X270000Y217500D01*
X270000Y217500D02*
Y260000D01*
X270000Y260000D02*
X270000Y260000D01*
X338000Y170000D02*
X387250D01*
X394750Y177500D01*
X444250D01*
X320000Y138000D02*
X322000Y140000D01*
X320000Y120000D02*
Y138000D01*
X150000Y79000D02*
Y90000D01*
X68900Y30000D02*
X109750D01*
X149750Y70000D01*
X49500Y80000D02*
X51000Y78500D01*
Y30000D02*
Y78500D01*
X83500Y177300D02*
X88750D01*
X79000Y172800D02*
X83500Y177300D01*
X79000Y162642D02*
Y172800D01*
X70500Y154143D02*
X79000Y162642D01*
X70500Y80000D02*
Y154143D01*
X88750Y177300D02*
Y202700D01*
X83500Y228100D02*
X88750D01*
X71600Y240000D02*
X83500Y228100D01*
X70000Y240000D02*
X71600D01*
X20000Y280000D02*
X28200Y271800D01*
X83500Y202700D02*
X88750D01*
X78500Y305400D02*
X82750Y301150D01*
Y300000D02*
Y301150D01*
X20000Y280000D02*
Y305400D01*
X262000Y217500D02*
Y221402D01*
X260152Y223250D02*
X262000Y221402D01*
X122199Y309500D02*
X208449Y223250D01*
X21900Y380000D02*
X92400Y309500D01*
X122199D01*
X208449Y223250D02*
X260152D01*
X205356Y232000D02*
X247500D01*
X58150Y379206D02*
X205356Y232000D01*
X48094Y379206D02*
X58150D01*
X47300Y380000D02*
X48094Y379206D01*
X72700Y380000D02*
X212700Y240000D01*
X247500D01*
X98100Y380000D02*
X230100Y248000D01*
X247500D01*
X137300Y358964D02*
Y380000D01*
Y358964D02*
X240265Y256000D01*
X247500D01*
Y280000D02*
X247500Y280000D01*
X270000D01*
X270000Y280000D01*
X204600Y299664D02*
Y380000D01*
Y299664D02*
X240265Y264000D01*
X247500D01*
X230000Y282264D02*
Y380000D01*
Y282264D02*
X240265Y272000D01*
X247500D01*
X301569Y217932D02*
X302000Y217500D01*
X301569Y217932D02*
Y230250D01*
X300000Y231819D02*
X301569Y230250D01*
X300000Y231819D02*
Y240000D01*
X278000Y217500D02*
X278432Y217931D01*
Y230250D01*
X280000Y231818D01*
Y240000D01*
D15*
X287250Y340000D02*
D03*
X272750D02*
D03*
X97250Y300000D02*
D03*
X82750D02*
D03*
D16*
X539000Y200000D02*
D03*
X530000D02*
D03*
X540000Y170000D02*
D03*
X531000D02*
D03*
X419000Y190000D02*
D03*
X410000D02*
D03*
X489000Y100000D02*
D03*
X480000D02*
D03*
X290000Y80000D02*
D03*
X281000D02*
D03*
X290000Y60000D02*
D03*
X281000D02*
D03*
D17*
X540000Y121000D02*
D03*
Y130000D02*
D03*
X480000Y261000D02*
D03*
Y270000D02*
D03*
X460000Y260000D02*
D03*
Y269000D02*
D03*
X440000Y261000D02*
D03*
Y270000D02*
D03*
X420000Y260000D02*
D03*
Y269000D02*
D03*
X270000Y170000D02*
D03*
Y179000D02*
D03*
X150000Y79000D02*
D03*
Y70000D02*
D03*
X180000Y60000D02*
D03*
Y69000D02*
D03*
D18*
X500000Y252846D02*
D03*
Y267154D02*
D03*
D19*
X171250Y151900D02*
D03*
Y177300D02*
D03*
Y202700D02*
D03*
Y228100D02*
D03*
X88750D02*
D03*
Y202700D02*
D03*
Y177300D02*
D03*
Y151900D02*
D03*
D20*
X212750Y180000D02*
D03*
X227250D02*
D03*
D21*
X230000Y122500D02*
D03*
Y37500D02*
D03*
D22*
X562500Y40000D02*
D03*
X477500D02*
D03*
D23*
X370000Y104000D02*
D03*
Y36000D02*
D03*
X410000Y104000D02*
D03*
Y36000D02*
D03*
D24*
X318000Y302500D02*
D03*
X310000D02*
D03*
X302000D02*
D03*
X294000D02*
D03*
X286000D02*
D03*
X278000D02*
D03*
X270000D02*
D03*
X262000D02*
D03*
Y217500D02*
D03*
X270000D02*
D03*
X278000D02*
D03*
X286000D02*
D03*
X294000D02*
D03*
X302000D02*
D03*
X310000D02*
D03*
X318000D02*
D03*
D25*
X247500Y288000D02*
D03*
Y280000D02*
D03*
Y272000D02*
D03*
Y264000D02*
D03*
Y256000D02*
D03*
Y248000D02*
D03*
Y240000D02*
D03*
Y232000D02*
D03*
X332500D02*
D03*
Y240000D02*
D03*
Y248000D02*
D03*
Y256000D02*
D03*
Y264000D02*
D03*
Y272000D02*
D03*
Y280000D02*
D03*
Y288000D02*
D03*
D26*
X68900Y30000D02*
D03*
X51000D02*
D03*
D27*
X70500Y80000D02*
D03*
X49500D02*
D03*
D28*
X470000Y170000D02*
D03*
D29*
X495750Y187500D02*
D03*
Y182500D02*
D03*
Y177500D02*
D03*
Y172500D02*
D03*
Y167500D02*
D03*
Y162500D02*
D03*
Y157500D02*
D03*
Y152500D02*
D03*
X444250D02*
D03*
Y157500D02*
D03*
Y162500D02*
D03*
Y167500D02*
D03*
Y172500D02*
D03*
Y177500D02*
D03*
Y182500D02*
D03*
Y187500D02*
D03*
D30*
X487500Y144250D02*
D03*
X482500D02*
D03*
X477500D02*
D03*
X472500D02*
D03*
X467500D02*
D03*
X462500D02*
D03*
X457500D02*
D03*
X452500D02*
D03*
Y195750D02*
D03*
X457500D02*
D03*
X462500D02*
D03*
X467500D02*
D03*
X472500D02*
D03*
X477500D02*
D03*
X482500D02*
D03*
X487500D02*
D03*
D31*
X338000Y140000D02*
D03*
X322000D02*
D03*
X338000Y170000D02*
D03*
X322000D02*
D03*
D32*
X410000Y140000D02*
D03*
Y154500D02*
D03*
D48*
X20000Y280000D02*
D03*
D49*
Y305400D02*
D03*
Y330800D02*
D03*
X510000Y374300D02*
D03*
X535400D02*
D03*
X420000D02*
D03*
X445400D02*
D03*
D50*
X580000Y368100D02*
D03*
X20000Y202700D02*
D03*
X580000Y218100D02*
D03*
D51*
X580000Y342700D02*
D03*
Y317300D02*
D03*
Y291900D02*
D03*
X317300Y380000D02*
D03*
X255400D02*
D03*
X230000D02*
D03*
X204600D02*
D03*
X137300D02*
D03*
X72700D02*
D03*
X47300D02*
D03*
X21900D02*
D03*
X20000Y177300D02*
D03*
X580000Y141900D02*
D03*
Y167300D02*
D03*
Y192700D02*
D03*
D52*
X484600Y374300D02*
D03*
X394600D02*
D03*
D53*
X342700Y380000D02*
D03*
X280800D02*
D03*
X162700D02*
D03*
X98100D02*
D03*
D56*
X1270Y0D02*
Y400000D01*
X600000D01*
Y0D02*
Y400000D01*
X1270Y0D02*
X600000D01*
D57*
X110000Y150000D02*
D03*
X390000Y60000D02*
D03*
X450157Y209843D02*
D03*
X438843Y221157D02*
D03*
X430813Y190500D02*
D03*
X420000Y210000D02*
D03*
X302000Y200000D02*
D03*
X336000Y198433D02*
D03*
X360000Y200000D02*
D03*
X459000Y230000D02*
D03*
X471594Y278407D02*
D03*
X310000Y160000D02*
D03*
X280657Y149343D02*
D03*
X270000Y140000D02*
D03*
X302000D02*
D03*
Y110000D02*
D03*
X320000Y90000D02*
D03*
X340000D02*
D03*
X390000Y146500D02*
D03*
X261282Y111282D02*
D03*
X310000Y80000D02*
D03*
X350000Y20000D02*
D03*
X509780Y200220D02*
D03*
X510000Y150000D02*
D03*
X470000Y100000D02*
D03*
X260000Y340000D02*
D03*
X220000D02*
D03*
X212600Y310000D02*
D03*
X164414Y215200D02*
D03*
X316585Y268000D02*
D03*
X300000Y330000D02*
D03*
X330000Y360000D02*
D03*
X348410Y244011D02*
D03*
X366867Y248181D02*
D03*
X391989Y219575D02*
D03*
X360000Y230000D02*
D03*
X369468Y219468D02*
D03*
X379468Y209468D02*
D03*
X150000Y150000D02*
D03*
X310000Y190000D02*
D03*
X360000Y160000D02*
D03*
X430000Y120000D02*
D03*
X210000Y20000D02*
D03*
X360000Y130000D02*
D03*
X370000Y180000D02*
D03*
X470000Y170000D02*
D03*
X480000Y230000D02*
D03*
X489000Y73250D02*
D03*
X550000Y80000D02*
D03*
X520000Y270000D02*
D03*
X550000Y170000D02*
D03*
X280000Y30000D02*
D03*
X260000Y320000D02*
D03*
X319743Y329743D02*
D03*
X190000Y220000D02*
D03*
X270000Y260000D02*
D03*
X320000Y120000D02*
D03*
X150000Y90000D02*
D03*
X70000Y240000D02*
D03*
X270000Y280000D02*
D03*
X300000Y240000D02*
D03*
X280000D02*
D03*
D58*
X459000Y159000D02*
D03*
Y170000D02*
D03*
Y181000D02*
D03*
X470000Y159000D02*
D03*
Y170000D02*
D03*
Y181000D02*
D03*
X481000Y159000D02*
D03*
Y170000D02*
D03*
Y181000D02*
D03*
M02*
