G04*
G04 #@! TF.GenerationSoftware,Altium Limited,Altium Designer,23.5.1 (21)*
G04*
G04 Layer_Color=255*
%FSLAX44Y44*%
%MOMM*%
G71*
G04*
G04 #@! TF.SameCoordinates,638B95CD-29A4-4EC3-B0C2-DC090694CFED*
G04*
G04*
G04 #@! TF.FilePolarity,Positive*
G04*
G01*
G75*
%ADD48R,1.8400X1.8400*%
%ADD49C,1.8400*%
%ADD50R,1.5700X1.5700*%
%ADD51C,1.5700*%
%ADD52R,1.8400X1.8400*%
%ADD53R,1.5700X1.5700*%
D48*
X20000Y280000D02*
D03*
D49*
Y305400D02*
D03*
Y330800D02*
D03*
X510000Y374300D02*
D03*
X535400D02*
D03*
X420000D02*
D03*
X445400D02*
D03*
D50*
X580000Y368100D02*
D03*
X20000Y202700D02*
D03*
X580000Y218100D02*
D03*
D51*
X580000Y342700D02*
D03*
Y317300D02*
D03*
Y291900D02*
D03*
X317300Y380000D02*
D03*
X255400D02*
D03*
X230000D02*
D03*
X204600D02*
D03*
X137300D02*
D03*
X72700D02*
D03*
X47300D02*
D03*
X21900D02*
D03*
X20000Y177300D02*
D03*
X580000Y141900D02*
D03*
Y167300D02*
D03*
Y192700D02*
D03*
D52*
X484600Y374300D02*
D03*
X394600D02*
D03*
D53*
X342700Y380000D02*
D03*
X280800D02*
D03*
X162700D02*
D03*
X98100D02*
D03*
M02*
