G04*
G04 #@! TF.GenerationSoftware,Altium Limited,Altium Designer,23.5.1 (21)*
G04*
G04 Layer_Color=16711935*
%FSLAX44Y44*%
%MOMM*%
G71*
G04*
G04 #@! TF.SameCoordinates,638B95CD-29A4-4EC3-B0C2-DC090694CFED*
G04*
G04*
G04 #@! TF.FilePolarity,Positive*
G04*
G01*
G75*
%ADD60C,0.1000*%
D60*
X254150Y111750D02*
G03*
X205850Y111750I-24150J0D01*
G01*
Y48250D02*
G03*
X254150Y48250I24150J0D01*
G01*
X551750Y15850D02*
G03*
X551750Y64150I0J24150D01*
G01*
X488250D02*
G03*
X488250Y15850I0J-24150D01*
G01*
X321000Y286000D02*
G03*
X321000Y286000I-5000J0D01*
G01*
X491500Y186500D02*
G03*
X491500Y186500I-5000J0D01*
G01*
X290500Y333250D02*
Y346750D01*
X269500Y333250D02*
Y346750D01*
Y333250D02*
X290500D01*
X269500Y346750D02*
X290500D01*
X211250Y175250D02*
Y184750D01*
X228750Y175250D02*
Y184750D01*
X211250D02*
X228750D01*
X211250Y175250D02*
X228750D01*
X205850Y135500D02*
X254150D01*
X205850Y24500D02*
X254150D01*
X254152Y24499D02*
Y135499D01*
X205850Y24500D02*
Y135500D01*
X254150Y48250D02*
Y111750D01*
X205850Y48250D02*
Y111750D01*
X575500Y15850D02*
Y64150D01*
X464500Y15850D02*
Y64150D01*
X464498Y15849D02*
X575499D01*
X464500Y64150D02*
X575500D01*
X488250Y15850D02*
X551750D01*
X488250Y64150D02*
X551750D01*
X255000Y295000D02*
X325000D01*
X255000Y225000D02*
X325000D01*
Y295000D01*
X255000Y225000D02*
Y295000D01*
X70000Y73750D02*
Y86250D01*
X50000Y73750D02*
X70000D01*
X50000D02*
Y86250D01*
X57500D01*
X50000D02*
X70000D01*
X444500Y144500D02*
Y195500D01*
X495500Y144500D02*
Y195500D01*
X444500Y144500D02*
X495500D01*
X444500Y195500D02*
X495500D01*
X79500Y293250D02*
X100500D01*
X79500Y306750D02*
X100500D01*
Y293250D02*
Y306750D01*
X79500Y293250D02*
Y306750D01*
X338500Y135500D02*
Y144500D01*
X321500Y135500D02*
Y144500D01*
Y135500D02*
X338500D01*
X321500Y144500D02*
X338500D01*
X403250Y136750D02*
Y157750D01*
X416750Y136750D02*
Y157750D01*
X403250Y136750D02*
X416750D01*
X403250Y157750D02*
X416750D01*
X338500Y165500D02*
Y174500D01*
X321500Y165500D02*
Y174500D01*
Y165500D02*
X338500D01*
X321500Y174500D02*
X338500D01*
M02*
