G04*
G04 #@! TF.GenerationSoftware,Altium Limited,Altium Designer,23.5.1 (21)*
G04*
G04 Layer_Color=8388736*
%FSLAX44Y44*%
%MOMM*%
G71*
G04*
G04 #@! TF.SameCoordinates,638B95CD-29A4-4EC3-B0C2-DC090694CFED*
G04*
G04*
G04 #@! TF.FilePolarity,Positive*
G04*
G01*
G75*
%ADD12C,0.2000*%
%ADD59C,0.0500*%
D12*
X-127700Y265050D02*
Y345750D01*
X30200D01*
Y265050D02*
Y345750D01*
X-127700Y265050D02*
X30200D01*
X594350Y276300D02*
Y383700D01*
X565650Y276300D02*
X594350D01*
X565650D02*
Y383700D01*
X594350D01*
X469650Y522000D02*
X550350D01*
Y364100D02*
Y522000D01*
X469650Y364100D02*
X550350D01*
X469650D02*
Y522000D01*
X379650D02*
X460350D01*
Y364100D02*
Y522000D01*
X379650Y364100D02*
X460350D01*
X379650D02*
Y522000D01*
X301100Y365800D02*
X358900D01*
X301100D02*
Y394200D01*
X358900D01*
Y365800D02*
Y394200D01*
X189000Y365650D02*
X296400D01*
X189000D02*
Y394350D01*
X296400D01*
Y365650D02*
Y394350D01*
X121100Y365800D02*
X178900D01*
X121100D02*
Y394200D01*
X178900D01*
Y365800D02*
Y394200D01*
X6300Y365650D02*
X113700D01*
X6300D02*
Y394350D01*
X113700D01*
Y365650D02*
Y394350D01*
X492690Y245671D02*
Y274329D01*
X507311D01*
Y245671D02*
Y274329D01*
X492690Y245671D02*
X507311D01*
X77000Y126000D02*
X183000D01*
X77000D02*
Y254000D01*
X183000D01*
Y126000D02*
Y254000D01*
X422000Y19000D02*
Y121000D01*
X358000Y19000D02*
X422000D01*
X358000D02*
Y121000D01*
X422000D01*
X34200Y161100D02*
Y218900D01*
X5800Y161100D02*
X34200D01*
X5800D02*
Y218900D01*
X34200D01*
X565650Y233700D02*
X594350D01*
X565650Y126300D02*
Y233700D01*
Y126300D02*
X594350D01*
Y233700D01*
D59*
X543000Y195500D02*
Y204500D01*
X526000Y195500D02*
Y204500D01*
Y195500D02*
X543000D01*
X526000Y204500D02*
X543000D01*
X531750Y200000D02*
X537250D01*
X534500Y197250D02*
Y202750D01*
X544000Y165500D02*
Y174500D01*
X527000Y165500D02*
Y174500D01*
Y165500D02*
X544000D01*
X527000Y174500D02*
X544000D01*
X532750Y170000D02*
X538250D01*
X535500Y167250D02*
Y172750D01*
Y117000D02*
X544500D01*
X535500Y134000D02*
X544500D01*
X535500Y117000D02*
Y134000D01*
X544500Y117000D02*
Y134000D01*
X540000Y122750D02*
Y128250D01*
X537250Y125500D02*
X542750D01*
X475500Y257000D02*
X484500D01*
X475500Y274000D02*
X484500D01*
X475500Y257000D02*
Y274000D01*
X484500Y257000D02*
Y274000D01*
X480000Y262750D02*
Y268250D01*
X477250Y265500D02*
X482750D01*
X464500Y255500D02*
Y273500D01*
X455500Y255500D02*
Y273500D01*
X464500D01*
X455500Y255500D02*
X464500D01*
X460000Y261750D02*
Y267250D01*
X457250Y264500D02*
X462750D01*
X435500Y257000D02*
X444500D01*
X435500Y274000D02*
X444500D01*
X435500Y257000D02*
Y274000D01*
X444500Y257000D02*
Y274000D01*
X440000Y262750D02*
Y268250D01*
X437250Y265500D02*
X442750D01*
X415500Y256000D02*
X424500D01*
X415500Y273000D02*
X424500D01*
X415500Y256000D02*
Y273000D01*
X424500Y256000D02*
Y273000D01*
X420000Y261750D02*
Y267250D01*
X417250Y264500D02*
X422750D01*
X265500Y166000D02*
X274500D01*
X265500Y183000D02*
X274500D01*
X265500Y166000D02*
Y183000D01*
X274500Y166000D02*
Y183000D01*
X270000Y171750D02*
Y177250D01*
X267250Y174500D02*
X272750D01*
X145500Y83000D02*
X154500D01*
X145500Y66000D02*
X154500D01*
Y83000D01*
X145500Y66000D02*
Y83000D01*
X150000Y71750D02*
Y77250D01*
X147250Y74500D02*
X152750D01*
X175500Y55999D02*
X184500D01*
X175500Y73000D02*
X184500D01*
X175500Y55999D02*
Y73000D01*
X184500Y55999D02*
Y73000D01*
X180000Y61750D02*
Y67250D01*
X177250Y64500D02*
X182750D01*
X423000Y185500D02*
Y194500D01*
X406000Y185500D02*
Y194500D01*
Y185500D02*
X423000D01*
X406000Y194500D02*
X423000D01*
X411750Y190000D02*
X417250D01*
X414500Y187250D02*
Y192750D01*
X45000Y38500D02*
X75000D01*
X45000Y21500D02*
X75000D01*
X60000Y25000D02*
Y35000D01*
X55000Y30000D02*
X65000D01*
X75000Y21500D02*
Y38500D01*
X45000Y21500D02*
Y38500D01*
X484500Y97250D02*
Y102750D01*
X481750Y100000D02*
X487250D01*
X475500Y95500D02*
Y104500D01*
X493500Y95500D02*
Y104500D01*
X475500D02*
X493500D01*
X475500Y95500D02*
X493500D01*
X285500Y77250D02*
Y82750D01*
X282750Y80000D02*
X288250D01*
X276500Y75500D02*
Y84500D01*
X294500Y75500D02*
Y84500D01*
X276500D02*
X294500D01*
X276500Y75500D02*
X294500D01*
X285500Y57250D02*
Y62750D01*
X282750Y60000D02*
X288250D01*
X276500Y55500D02*
Y64500D01*
X294500Y55500D02*
Y64500D01*
X276500D02*
X294500D01*
X276500Y55500D02*
X294500D01*
M02*
