M48
;Layer_Color=9474304
;FILE_FORMAT=4:4
METRIC,LZ
;TYPE=PLATED
T1F00S00C0.2000
T2F00S00C0.4000
T3F00S00C1.0200
T4F00S00C1.1900
%
T01
X00459Y00159
Y0017
Y00181
X0047
Y0017
X00481
Y00181
Y00159
X0047
T02
X0021Y0002
X0028Y0003
X0031Y0008
X0032Y0009
X0034
X0032Y0012
X00302Y0011
Y0014
X0027
X00261282Y00111282
X0036Y0013
X0043Y0012
X0047Y001
X00489Y0007325
X0039Y0006
X0035Y0002
X0015Y0009
X0055Y0008
Y0017
X0051Y0015
X0050978Y0020022
X0048Y0023
X00459
X00450157Y00209843
X00438843Y00221157
X0042Y0021
X00430813Y001905
X0047Y0017
X0039Y001465
X0036Y0016
X0037Y0018
X0036Y002
X00336Y00198433
X0031Y0019
X00302Y002
X003Y0024
X0028
X0027Y0026
Y0028
X0026Y0032
Y0034
X0022
X002126Y0031
X003Y0033
X00319743Y00329743
X0033Y0036
X00316585Y00268
X0034841Y00244011
X00366867Y00248181
X0036Y0023
X00369468Y00219468
X00379468Y00209468
X00391989Y00219575
X00471594Y00278407
X0052Y0027
X0031Y0016
X00280657Y00149343
X0015Y0015
X00164414Y002152
X0019Y0022
X0007Y0024
X0011Y0015
T03
X0058Y001419
Y001673
Y001927
Y002181
X0058Y002919
Y003173
Y003427
Y003681
X003427Y0038
X003173
X002808
X002554
X0023
X002046
X001627
X001373
X000981
X000727
X000473
X000219
X0002Y002027
Y001773
T04
X003946Y003743
X0042
X004454
X004846
X0051
X005354
X0002Y003308
Y003054
Y0028
M30
