G04*
G04 #@! TF.GenerationSoftware,Altium Limited,Altium Designer,23.5.1 (21)*
G04*
G04 Layer_Color=32768*
%FSLAX44Y44*%
%MOMM*%
G71*
G04*
G04 #@! TF.SameCoordinates,638B95CD-29A4-4EC3-B0C2-DC090694CFED*
G04*
G04*
G04 #@! TF.FilePolarity,Positive*
G04*
G01*
G75*
%ADD59C,0.0500*%
%ADD60C,0.1000*%
D59*
X293500Y332000D02*
Y348000D01*
X266500Y332000D02*
Y348000D01*
Y332000D02*
X293500D01*
X266500Y348000D02*
X293500D01*
X203000Y169500D02*
Y190500D01*
X237000Y169500D02*
Y190500D01*
X203000D02*
X237000D01*
X203000Y169500D02*
X237000D01*
X204850Y9000D02*
X255150D01*
Y151000D01*
X204850Y9000D02*
Y151000D01*
X255150D01*
X449000Y14850D02*
Y65150D01*
Y14850D02*
X591000D01*
X449000Y65150D02*
X591000D01*
Y14850D02*
Y65150D01*
X233000Y317000D02*
X347000D01*
X233000Y203000D02*
X347000D01*
Y317000D01*
X233000Y203000D02*
Y317000D01*
X77500Y73000D02*
Y87000D01*
X42500Y73000D02*
X77500D01*
X42500D02*
Y87000D01*
X77500D01*
X435000Y135000D02*
Y205000D01*
X505000Y135000D02*
Y205000D01*
X435000Y135000D02*
X505000D01*
X435000Y205000D02*
X505000D01*
X76500Y292000D02*
X103500D01*
X76500Y308000D02*
X103500D01*
Y292000D02*
Y308000D01*
X76500Y292000D02*
Y308000D01*
X402000Y133750D02*
Y160750D01*
X418000Y133750D02*
Y160750D01*
X402000Y133750D02*
X418000D01*
X402000Y160750D02*
X418000D01*
D60*
X275000Y340000D02*
X285000D01*
X280000Y335000D02*
Y345000D01*
X215250Y180000D02*
X224750D01*
X220000Y175250D02*
Y184750D01*
X225000Y80000D02*
X235000D01*
X230000Y75000D02*
Y85000D01*
X520000Y35000D02*
Y45000D01*
X515000Y40000D02*
X525000D01*
X290000Y255000D02*
Y265000D01*
X285000Y260000D02*
X295000D01*
X60000Y77500D02*
Y82500D01*
X57500Y80000D02*
X62500D01*
X465000Y170000D02*
X475000D01*
X470000Y165000D02*
Y175000D01*
X90000Y295000D02*
Y305000D01*
X85000Y300000D02*
X95000D01*
X345250Y133500D02*
Y146500D01*
X314750Y133500D02*
Y146500D01*
Y133500D02*
X345250D01*
X314750Y146500D02*
X345250D01*
X325500Y140000D02*
X334500D01*
X330000Y135500D02*
Y144500D01*
X405000Y147250D02*
X415000D01*
X410000Y142250D02*
Y152250D01*
X345250Y163500D02*
Y176500D01*
X314750Y163500D02*
Y176500D01*
Y163500D02*
X345250D01*
X314750Y176500D02*
X345250D01*
X325500Y170000D02*
X334500D01*
X330000Y165500D02*
Y174500D01*
M02*
