G04*
G04 #@! TF.GenerationSoftware,Altium Limited,Altium Designer,23.5.1 (21)*
G04*
G04 Layer_Color=16711935*
%FSLAX44Y44*%
%MOMM*%
G71*
G04*
G04 #@! TF.SameCoordinates,638B95CD-29A4-4EC3-B0C2-DC090694CFED*
G04*
G04*
G04 #@! TF.FilePolarity,Negative*
G04*
G01*
G75*
%ADD48R,1.8400X1.8400*%
%ADD49C,1.8400*%
%ADD50R,1.5700X1.5700*%
%ADD51C,1.5700*%
%ADD52R,1.8400X1.8400*%
%ADD53R,1.5700X1.5700*%
%ADD54C,1.2032*%
%ADD55C,0.7032*%
D48*
X20000Y280000D02*
D03*
D49*
Y305400D02*
D03*
Y330800D02*
D03*
X510000Y374300D02*
D03*
X535400D02*
D03*
X420000D02*
D03*
X445400D02*
D03*
D50*
X580000Y368100D02*
D03*
X20000Y202700D02*
D03*
X580000Y218100D02*
D03*
D51*
X580000Y342700D02*
D03*
Y317300D02*
D03*
Y291900D02*
D03*
X317300Y380000D02*
D03*
X255400D02*
D03*
X230000D02*
D03*
X204600D02*
D03*
X137300D02*
D03*
X72700D02*
D03*
X47300D02*
D03*
X21900D02*
D03*
X20000Y177300D02*
D03*
X580000Y141900D02*
D03*
Y167300D02*
D03*
Y192700D02*
D03*
D52*
X484600Y374300D02*
D03*
X394600D02*
D03*
D53*
X342700Y380000D02*
D03*
X280800D02*
D03*
X162700D02*
D03*
X98100D02*
D03*
D54*
X110000Y150000D02*
D03*
X390000Y60000D02*
D03*
X450157Y209843D02*
D03*
X438843Y221157D02*
D03*
X430813Y190500D02*
D03*
X420000Y210000D02*
D03*
X302000Y200000D02*
D03*
X336000Y198433D02*
D03*
X360000Y200000D02*
D03*
X459000Y230000D02*
D03*
X471594Y278407D02*
D03*
X310000Y160000D02*
D03*
X280657Y149343D02*
D03*
X270000Y140000D02*
D03*
X302000D02*
D03*
Y110000D02*
D03*
X320000Y90000D02*
D03*
X340000D02*
D03*
X390000Y146500D02*
D03*
X261282Y111282D02*
D03*
X310000Y80000D02*
D03*
X350000Y20000D02*
D03*
X509780Y200220D02*
D03*
X510000Y150000D02*
D03*
X470000Y100000D02*
D03*
X260000Y340000D02*
D03*
X220000D02*
D03*
X212600Y310000D02*
D03*
X164414Y215200D02*
D03*
X316585Y268000D02*
D03*
X300000Y330000D02*
D03*
X330000Y360000D02*
D03*
X348410Y244011D02*
D03*
X366867Y248181D02*
D03*
X391989Y219575D02*
D03*
X360000Y230000D02*
D03*
X369468Y219468D02*
D03*
X379468Y209468D02*
D03*
X150000Y150000D02*
D03*
X310000Y190000D02*
D03*
X360000Y160000D02*
D03*
X430000Y120000D02*
D03*
X210000Y20000D02*
D03*
X360000Y130000D02*
D03*
X370000Y180000D02*
D03*
X470000Y170000D02*
D03*
X480000Y230000D02*
D03*
X489000Y73250D02*
D03*
X550000Y80000D02*
D03*
X520000Y270000D02*
D03*
X550000Y170000D02*
D03*
X280000Y30000D02*
D03*
X260000Y320000D02*
D03*
X319743Y329743D02*
D03*
X190000Y220000D02*
D03*
X270000Y260000D02*
D03*
X320000Y120000D02*
D03*
X150000Y90000D02*
D03*
X70000Y240000D02*
D03*
X270000Y280000D02*
D03*
X300000Y240000D02*
D03*
X280000D02*
D03*
D55*
X459000Y159000D02*
D03*
Y170000D02*
D03*
Y181000D02*
D03*
X470000Y159000D02*
D03*
Y170000D02*
D03*
Y181000D02*
D03*
X481000Y159000D02*
D03*
Y170000D02*
D03*
Y181000D02*
D03*
M02*
