G04*
G04 #@! TF.GenerationSoftware,Altium Limited,Altium Designer,23.5.1 (21)*
G04*
G04 Layer_Physical_Order=2*
G04 Layer_Color=16711680*
%FSLAX44Y44*%
%MOMM*%
G71*
G04*
G04 #@! TF.SameCoordinates,638B95CD-29A4-4EC3-B0C2-DC090694CFED*
G04*
G04*
G04 #@! TF.FilePolarity,Positive*
G04*
G01*
G75*
%ADD12C,0.2000*%
%ADD48R,1.8400X1.8400*%
%ADD49C,1.8400*%
%ADD50R,1.5700X1.5700*%
%ADD51C,1.5700*%
%ADD52R,1.8400X1.8400*%
%ADD53R,1.5700X1.5700*%
%ADD57C,1.0000*%
%ADD58C,0.5000*%
G36*
X527432Y382171D02*
X526438Y381177D01*
X524963Y378623D01*
X524200Y375775D01*
Y372826D01*
X524963Y369977D01*
X525618Y368844D01*
X378261Y221487D01*
X376809Y221831D01*
X376659Y222282D01*
X376668Y222342D01*
X486763Y332437D01*
X487426Y333429D01*
X487659Y334600D01*
Y363100D01*
X495800D01*
Y382378D01*
X497070Y382904D01*
X499822Y380152D01*
X499060Y378832D01*
X498260Y375846D01*
Y375570D01*
X521740D01*
Y375846D01*
X520940Y378832D01*
X520178Y380152D01*
X523467Y383441D01*
X526906D01*
X527432Y382171D01*
D02*
G37*
G36*
X152850Y389850D02*
Y370150D01*
X168224D01*
X259837Y278537D01*
X260830Y277874D01*
X262000Y277641D01*
X263385D01*
X263477Y277298D01*
X264399Y275702D01*
X265702Y274399D01*
X267298Y273477D01*
X269078Y273000D01*
X270922D01*
X272702Y273477D01*
X274298Y274399D01*
X275601Y275702D01*
X276523Y277298D01*
X276813Y278379D01*
X278225Y278763D01*
X292617Y264371D01*
X292578Y264102D01*
X291314Y263059D01*
X291314Y263059D01*
X276317D01*
X275601Y264298D01*
X274298Y265601D01*
X272702Y266523D01*
X270922Y267000D01*
X269078D01*
X267298Y266523D01*
X265702Y265601D01*
X264399Y264298D01*
X263477Y262702D01*
X263000Y260922D01*
Y259078D01*
X263370Y257696D01*
X228733Y223059D01*
X196317D01*
X195601Y224298D01*
X194298Y225601D01*
X192702Y226523D01*
X190922Y227000D01*
X189078D01*
X187298Y226523D01*
X185702Y225601D01*
X184399Y224298D01*
X183477Y222702D01*
X183000Y220922D01*
Y219078D01*
X183477Y217298D01*
X184399Y215702D01*
X185702Y214399D01*
X187298Y213477D01*
X189078Y213000D01*
X190922D01*
X192702Y213477D01*
X194298Y214399D01*
X195601Y215702D01*
X196317Y216941D01*
X230000D01*
X230000Y216941D01*
X231171Y217174D01*
X232163Y217837D01*
X267696Y253370D01*
X269078Y253000D01*
X270922D01*
X272702Y253477D01*
X274298Y254399D01*
X275601Y255702D01*
X276317Y256941D01*
X290047D01*
X298763Y248225D01*
X298379Y246813D01*
X297298Y246523D01*
X295702Y245601D01*
X294399Y244298D01*
X293477Y242702D01*
X293000Y240922D01*
Y239078D01*
X293370Y237696D01*
X257433Y201759D01*
X247744D01*
X247258Y202932D01*
X277696Y233370D01*
X279078Y233000D01*
X280922D01*
X282702Y233477D01*
X284298Y234399D01*
X285601Y235702D01*
X286523Y237298D01*
X287000Y239078D01*
Y240922D01*
X286523Y242702D01*
X285601Y244298D01*
X284298Y245601D01*
X282702Y246523D01*
X280922Y247000D01*
X279078D01*
X277298Y246523D01*
X275702Y245601D01*
X274399Y244298D01*
X273477Y242702D01*
X273000Y240922D01*
Y239078D01*
X273370Y237696D01*
X241433Y205759D01*
X29850D01*
Y212550D01*
X10150Y212550D01*
X10000Y213758D01*
Y268260D01*
X18730D01*
Y280000D01*
Y291740D01*
X10000D01*
Y297001D01*
X11270Y297527D01*
X12792Y296006D01*
X15468Y294460D01*
X18454Y293660D01*
X18730D01*
Y305400D01*
Y317140D01*
X18454D01*
X15468Y316340D01*
X12792Y314794D01*
X11270Y313273D01*
X10000Y313799D01*
Y323362D01*
X11270Y323691D01*
X13123Y321838D01*
X15677Y320363D01*
X18526Y319600D01*
X21474D01*
X24323Y320363D01*
X25457Y321018D01*
X66941Y279533D01*
Y246317D01*
X65702Y245601D01*
X64399Y244298D01*
X63477Y242702D01*
X63000Y240922D01*
Y239078D01*
X63477Y237298D01*
X64399Y235702D01*
X65702Y234399D01*
X67298Y233477D01*
X69078Y233000D01*
X70922D01*
X72702Y233477D01*
X74298Y234399D01*
X75601Y235702D01*
X76523Y237298D01*
X77000Y239078D01*
Y240922D01*
X76523Y242702D01*
X75601Y244298D01*
X74298Y245601D01*
X73059Y246317D01*
Y280800D01*
X72826Y281971D01*
X72163Y282963D01*
X29782Y325344D01*
X30437Y326477D01*
X31200Y329325D01*
Y332275D01*
X30437Y335123D01*
X28962Y337677D01*
X26877Y339762D01*
X24323Y341237D01*
X21474Y342000D01*
X18526D01*
X15677Y341237D01*
X13123Y339762D01*
X11270Y337909D01*
X10000Y338238D01*
Y390000D01*
X16981D01*
X17321Y388730D01*
X15852Y387882D01*
X14018Y386048D01*
X12721Y383802D01*
X12050Y381297D01*
Y378703D01*
X12721Y376198D01*
X14018Y373952D01*
X15852Y372118D01*
X18098Y370821D01*
X20603Y370150D01*
X23197D01*
X25702Y370821D01*
X27948Y372118D01*
X29782Y373952D01*
X31079Y376198D01*
X31750Y378703D01*
Y381297D01*
X31079Y383802D01*
X29782Y386048D01*
X27948Y387882D01*
X26479Y388730D01*
X26819Y390000D01*
X42380D01*
X42721Y388730D01*
X41252Y387882D01*
X39418Y386048D01*
X38121Y383802D01*
X37450Y381297D01*
Y378703D01*
X38121Y376198D01*
X39418Y373952D01*
X41252Y372118D01*
X43498Y370821D01*
X46003Y370150D01*
X48597D01*
X51102Y370821D01*
X53348Y372118D01*
X55182Y373952D01*
X56479Y376198D01*
X57150Y378703D01*
Y381297D01*
X56479Y383802D01*
X55182Y386048D01*
X53348Y387882D01*
X51879Y388730D01*
X52219Y390000D01*
X67780D01*
X68121Y388730D01*
X66652Y387882D01*
X64818Y386048D01*
X63521Y383802D01*
X62850Y381297D01*
Y378703D01*
X63521Y376198D01*
X64818Y373952D01*
X66652Y372118D01*
X68898Y370821D01*
X71403Y370150D01*
X73997D01*
X76502Y370821D01*
X78748Y372118D01*
X80582Y373952D01*
X81879Y376198D01*
X82550Y378703D01*
Y381297D01*
X81879Y383802D01*
X80582Y386048D01*
X78748Y387882D01*
X77279Y388730D01*
X77619Y390000D01*
X87042D01*
X88250Y389850D01*
X88250Y388730D01*
Y370150D01*
X107950D01*
X107950Y389850D01*
X109158Y390000D01*
X132381D01*
X132721Y388730D01*
X131252Y387882D01*
X129418Y386048D01*
X128122Y383802D01*
X127450Y381297D01*
Y378703D01*
X128122Y376198D01*
X129418Y373952D01*
X131252Y372118D01*
X133498Y370821D01*
X136003Y370150D01*
X138597D01*
X141102Y370821D01*
X143348Y372118D01*
X145182Y373952D01*
X146479Y376198D01*
X147150Y378703D01*
Y381297D01*
X146479Y383802D01*
X145182Y386048D01*
X143348Y387882D01*
X141879Y388730D01*
X142220Y390000D01*
X151642D01*
X152850Y389850D01*
D02*
G37*
G36*
X584594Y379123D02*
X584108Y377950D01*
X570150D01*
Y362576D01*
X566987Y359413D01*
X566324Y358420D01*
X566091Y357250D01*
X566091Y357250D01*
Y328150D01*
X566091Y328150D01*
X566324Y326979D01*
X566987Y325987D01*
X571206Y321768D01*
X570821Y321102D01*
X570622Y320359D01*
X489714D01*
X489713Y320359D01*
X488543Y320126D01*
X487551Y319463D01*
X394829Y226742D01*
X394145Y226924D01*
X393765Y228339D01*
X529944Y364518D01*
X531077Y363863D01*
X533926Y363100D01*
X536875D01*
X539723Y363863D01*
X542277Y365338D01*
X544362Y367423D01*
X545837Y369977D01*
X546600Y372826D01*
Y375775D01*
X545837Y378623D01*
X544362Y381177D01*
X543368Y382171D01*
X543894Y383441D01*
X580275D01*
X584594Y379123D01*
D02*
G37*
G36*
X430137Y388730D02*
X430037Y388663D01*
X425852Y384478D01*
X424532Y385240D01*
X421546Y386040D01*
X421270D01*
Y375570D01*
X431740D01*
Y375846D01*
X430940Y378832D01*
X430178Y380152D01*
X433467Y383441D01*
X436906D01*
X437432Y382171D01*
X436438Y381177D01*
X434963Y378623D01*
X434200Y375775D01*
Y372826D01*
X434963Y369977D01*
X436438Y367423D01*
X438523Y365338D01*
X441077Y363863D01*
X442341Y363525D01*
Y316667D01*
X375093Y249418D01*
X373680Y249802D01*
X373391Y250883D01*
X372469Y252479D01*
X371166Y253783D01*
X369569Y254704D01*
X367789Y255181D01*
X365946D01*
X364166Y254704D01*
X362569Y253783D01*
X361266Y252479D01*
X360551Y251240D01*
X354745D01*
X354745Y251240D01*
X353575Y251007D01*
X352582Y250344D01*
X352582Y250344D01*
X352164Y249926D01*
X351112Y250534D01*
X349332Y251011D01*
X347489D01*
X345708Y250534D01*
X344112Y249613D01*
X342809Y248309D01*
X341887Y246713D01*
X341410Y244933D01*
Y243090D01*
X341887Y241309D01*
X342809Y239713D01*
X344112Y238410D01*
X345708Y237488D01*
X347489Y237011D01*
X349332D01*
X351112Y237488D01*
X352708Y238410D01*
X354012Y239713D01*
X354933Y241309D01*
X355410Y243090D01*
Y244521D01*
X356012Y245123D01*
X360551D01*
X361266Y243883D01*
X362569Y242580D01*
X364166Y241658D01*
X365247Y241369D01*
X365630Y239956D01*
X362304Y236630D01*
X360922Y237000D01*
X359078D01*
X357298Y236523D01*
X355702Y235601D01*
X354399Y234298D01*
X353477Y232702D01*
X353000Y230922D01*
Y229078D01*
X353477Y227298D01*
X354399Y225702D01*
X355702Y224399D01*
X357298Y223477D01*
X359078Y223000D01*
X360922D01*
X362148Y223328D01*
X362985Y222238D01*
X362945Y222170D01*
X362468Y220390D01*
Y218547D01*
X362945Y216766D01*
X363867Y215170D01*
X365170Y213867D01*
X366766Y212945D01*
X368547Y212468D01*
X370390D01*
X371882Y212868D01*
X372439Y212502D01*
X372502Y212439D01*
X372868Y211882D01*
X372468Y210390D01*
Y208547D01*
X372945Y206766D01*
X373867Y205170D01*
X374708Y204329D01*
X374182Y203059D01*
X366317D01*
X365601Y204298D01*
X364298Y205601D01*
X362702Y206523D01*
X360922Y207000D01*
X359078D01*
X357298Y206523D01*
X355702Y205601D01*
X354399Y204298D01*
X353477Y202702D01*
X353000Y200922D01*
Y199078D01*
X353477Y197298D01*
X354399Y195702D01*
X355702Y194399D01*
X357298Y193477D01*
X359078Y193000D01*
X360922D01*
X362702Y193477D01*
X364298Y194399D01*
X365601Y195702D01*
X366317Y196941D01*
X394531D01*
X394531Y196941D01*
X395702Y197174D01*
X396694Y197837D01*
X412628Y213771D01*
X413644Y212991D01*
X413477Y212702D01*
X413000Y210922D01*
Y209078D01*
X413477Y207298D01*
X414399Y205702D01*
X415702Y204399D01*
X417298Y203477D01*
X419078Y203000D01*
X420922D01*
X422304Y203370D01*
X427683Y197991D01*
X427586Y196719D01*
X426515Y196101D01*
X425212Y194798D01*
X424290Y193202D01*
X423813Y191421D01*
Y189578D01*
X424290Y187798D01*
X425212Y186202D01*
X426515Y184898D01*
X428111Y183977D01*
X429892Y183500D01*
X431735D01*
X433515Y183977D01*
X435111Y184898D01*
X436415Y186202D01*
X437336Y187798D01*
X437813Y189578D01*
Y191421D01*
X437336Y193202D01*
X436415Y194798D01*
X435111Y196101D01*
X433872Y196817D01*
Y199187D01*
X433639Y200357D01*
X432976Y201350D01*
X432976Y201350D01*
X426630Y207696D01*
X427000Y209078D01*
Y210922D01*
X426523Y212702D01*
X425601Y214298D01*
X424298Y215601D01*
X422702Y216523D01*
X420922Y217000D01*
X419078D01*
X417298Y216523D01*
X417009Y216356D01*
X416229Y217372D01*
X425798Y226941D01*
X432932D01*
X433458Y225671D01*
X433242Y225455D01*
X432320Y223859D01*
X431843Y222078D01*
Y220235D01*
X432320Y218455D01*
X433242Y216859D01*
X434545Y215556D01*
X436141Y214634D01*
X437921Y214157D01*
X439765D01*
X441147Y214527D01*
X443527Y212147D01*
X443157Y210765D01*
Y208922D01*
X443634Y207141D01*
X444555Y205545D01*
X445859Y204242D01*
X447455Y203320D01*
X449235Y202843D01*
X451078D01*
X452859Y203320D01*
X454455Y204242D01*
X455758Y205545D01*
X456680Y207141D01*
X457157Y208922D01*
Y210765D01*
X456680Y212545D01*
X455758Y214141D01*
X454455Y215445D01*
X452859Y216366D01*
X451078Y216843D01*
X449235D01*
X447853Y216473D01*
X445473Y218853D01*
X445843Y220235D01*
Y222078D01*
X445366Y223859D01*
X444444Y225455D01*
X444228Y225671D01*
X444754Y226941D01*
X452683D01*
X453398Y225702D01*
X454702Y224399D01*
X456298Y223477D01*
X458078Y223000D01*
X459921D01*
X461702Y223477D01*
X463298Y224399D01*
X464601Y225702D01*
X465523Y227298D01*
X465671Y227852D01*
X466941Y227685D01*
Y185069D01*
X465727Y183855D01*
X465187Y182551D01*
X463813D01*
X463273Y183855D01*
X461855Y185272D01*
X460270Y185929D01*
Y181000D01*
X459000D01*
Y179730D01*
X454071D01*
X454727Y178145D01*
X456145Y176727D01*
X457448Y176187D01*
Y174813D01*
X456145Y174273D01*
X454727Y172855D01*
X454071Y171270D01*
X459000D01*
Y168730D01*
X454071D01*
X454727Y167145D01*
X456145Y165727D01*
X457449Y165187D01*
Y163813D01*
X456145Y163272D01*
X454727Y161855D01*
X454071Y160270D01*
X459000D01*
Y159000D01*
X460270D01*
Y154071D01*
X461855Y154727D01*
X463273Y156145D01*
X463813Y157449D01*
X465187D01*
X465727Y156145D01*
X466941Y154931D01*
Y106940D01*
X465370Y106033D01*
X463966Y104630D01*
X462974Y102910D01*
X462534Y101270D01*
X477466D01*
X477026Y102910D01*
X476034Y104630D01*
X474630Y106033D01*
X473059Y106940D01*
Y154931D01*
X474273Y156145D01*
X474813Y157448D01*
X476187D01*
X476727Y156145D01*
X478145Y154727D01*
X479730Y154071D01*
Y159000D01*
X482270D01*
Y154071D01*
X483855Y154727D01*
X484672Y155544D01*
X485942Y155018D01*
Y79567D01*
X484702Y78851D01*
X483399Y77548D01*
X482477Y75952D01*
X482000Y74172D01*
Y72328D01*
X482477Y70548D01*
X483399Y68952D01*
X484702Y67649D01*
X486298Y66727D01*
X488079Y66250D01*
X489922D01*
X491702Y66727D01*
X493298Y67649D01*
X494602Y68952D01*
X495523Y70548D01*
X496000Y72328D01*
Y74172D01*
X495523Y75952D01*
X494602Y77548D01*
X493298Y78851D01*
X492059Y79567D01*
Y221000D01*
X491826Y222170D01*
X491163Y223163D01*
X491163Y223163D01*
X486630Y227696D01*
X487000Y229078D01*
Y230922D01*
X486523Y232702D01*
X485601Y234298D01*
X484298Y235601D01*
X482702Y236523D01*
X481621Y236813D01*
X481237Y238225D01*
X511775Y268763D01*
X513187Y268379D01*
X513477Y267298D01*
X514399Y265702D01*
X515702Y264399D01*
X517298Y263477D01*
X519078Y263000D01*
X520922D01*
X522304Y263370D01*
X531941Y253733D01*
Y95000D01*
X531941Y95000D01*
X532174Y93829D01*
X532837Y92837D01*
X543370Y82304D01*
X543000Y80922D01*
Y79078D01*
X543477Y77298D01*
X544399Y75702D01*
X545702Y74399D01*
X547298Y73477D01*
X548379Y73187D01*
X548763Y71775D01*
X500047Y23059D01*
X357076D01*
X356721Y23671D01*
X357453Y24941D01*
X358000D01*
X358000Y24941D01*
X359171Y25174D01*
X360163Y25837D01*
X387696Y53370D01*
X389078Y53000D01*
X390922D01*
X392702Y53477D01*
X394298Y54399D01*
X395601Y55702D01*
X396523Y57298D01*
X397000Y59078D01*
Y60922D01*
X396523Y62702D01*
X395601Y64298D01*
X394298Y65601D01*
X392702Y66523D01*
X390922Y67000D01*
X389078D01*
X387298Y66523D01*
X385702Y65601D01*
X384399Y64298D01*
X383477Y62702D01*
X383000Y60922D01*
Y59078D01*
X383370Y57696D01*
X356733Y31059D01*
X347044D01*
X346558Y32232D01*
X427696Y113370D01*
X429078Y113000D01*
X430922D01*
X432702Y113477D01*
X434298Y114399D01*
X435601Y115702D01*
X436523Y117298D01*
X437000Y119078D01*
Y120922D01*
X436523Y122702D01*
X435601Y124298D01*
X434298Y125601D01*
X432702Y126523D01*
X430922Y127000D01*
X429078D01*
X427298Y126523D01*
X425702Y125601D01*
X424399Y124298D01*
X423477Y122702D01*
X423000Y120922D01*
Y119078D01*
X423370Y117696D01*
X328733Y23059D01*
X284517D01*
X284177Y24329D01*
X284298Y24399D01*
X285601Y25702D01*
X286523Y27298D01*
X287000Y29078D01*
Y30922D01*
X286630Y32304D01*
X330163Y75837D01*
X330826Y76830D01*
X331059Y78000D01*
X331059Y78000D01*
Y190980D01*
X332329Y191712D01*
X332941Y191357D01*
Y184000D01*
X332941Y184000D01*
X333174Y182829D01*
X333837Y181837D01*
X353370Y162304D01*
X353000Y160922D01*
Y159078D01*
X353477Y157298D01*
X354399Y155702D01*
X355702Y154399D01*
X357298Y153477D01*
X359078Y153000D01*
X360922D01*
X362702Y153477D01*
X364298Y154399D01*
X365601Y155702D01*
X365671Y155823D01*
X366941Y155483D01*
Y141267D01*
X362304Y136630D01*
X360922Y137000D01*
X359078D01*
X357298Y136523D01*
X355702Y135601D01*
X354399Y134298D01*
X353477Y132702D01*
X353000Y130922D01*
Y129078D01*
X353477Y127298D01*
X354399Y125702D01*
X355702Y124399D01*
X357298Y123477D01*
X359078Y123000D01*
X360378D01*
X360904Y121730D01*
X339337Y100163D01*
X338674Y99171D01*
X338441Y98000D01*
X338441Y98000D01*
Y96829D01*
X337298Y96523D01*
X335702Y95601D01*
X334399Y94298D01*
X333477Y92702D01*
X333000Y90922D01*
Y89078D01*
X333477Y87298D01*
X334399Y85702D01*
X335702Y84399D01*
X337298Y83477D01*
X339078Y83000D01*
X340922D01*
X342702Y83477D01*
X344298Y84399D01*
X345601Y85702D01*
X346523Y87298D01*
X347000Y89078D01*
Y90922D01*
X346523Y92702D01*
X345601Y94298D01*
X344559Y95341D01*
Y96733D01*
X387696Y139871D01*
X389078Y139500D01*
X390922D01*
X392702Y139977D01*
X394298Y140899D01*
X395601Y142202D01*
X396523Y143798D01*
X397000Y145578D01*
Y147422D01*
X396523Y149202D01*
X395601Y150798D01*
X394298Y152101D01*
X392702Y153023D01*
X390922Y153500D01*
X389078D01*
X387298Y153023D01*
X385702Y152101D01*
X384399Y150798D01*
X383477Y149202D01*
X383000Y147422D01*
Y145578D01*
X383370Y144196D01*
X368270Y129096D01*
X367000Y129622D01*
Y130922D01*
X366630Y132304D01*
X372163Y137837D01*
X372163Y137837D01*
X372826Y138829D01*
X373059Y140000D01*
Y173683D01*
X374298Y174399D01*
X375601Y175702D01*
X376523Y177298D01*
X377000Y179078D01*
Y180922D01*
X376523Y182702D01*
X375601Y184298D01*
X374298Y185601D01*
X372702Y186523D01*
X370922Y187000D01*
X369078D01*
X367298Y186523D01*
X365702Y185601D01*
X364399Y184298D01*
X363477Y182702D01*
X363000Y180922D01*
Y179078D01*
X363477Y177298D01*
X364399Y175702D01*
X365702Y174399D01*
X366941Y173683D01*
Y164517D01*
X365671Y164177D01*
X365601Y164298D01*
X364298Y165601D01*
X362702Y166523D01*
X360922Y167000D01*
X359078D01*
X357696Y166630D01*
X339059Y185267D01*
Y192116D01*
X340298Y192832D01*
X341601Y194135D01*
X342523Y195731D01*
X343000Y197512D01*
Y199355D01*
X342523Y201135D01*
X341601Y202731D01*
X340298Y204035D01*
X338702Y204956D01*
X336922Y205433D01*
X335079D01*
X333298Y204956D01*
X332329Y204397D01*
X331059Y205124D01*
Y233314D01*
X330826Y234484D01*
X330163Y235477D01*
X330163Y235477D01*
X263059Y302581D01*
Y313683D01*
X264298Y314399D01*
X265601Y315702D01*
X266523Y317298D01*
X267000Y319078D01*
Y320922D01*
X266523Y322702D01*
X265601Y324298D01*
X264298Y325601D01*
X262702Y326523D01*
X260922Y327000D01*
X259078D01*
X257298Y326523D01*
X255702Y325601D01*
X254399Y324298D01*
X253477Y322702D01*
X253000Y320922D01*
Y319078D01*
X253477Y317298D01*
X254399Y315702D01*
X255702Y314399D01*
X256941Y313683D01*
Y301314D01*
X256941Y301314D01*
X257174Y300143D01*
X257837Y299151D01*
X268763Y288225D01*
X268379Y286813D01*
X267298Y286523D01*
X265702Y285601D01*
X264399Y284298D01*
X264349Y284212D01*
X262946Y284080D01*
X172550Y374476D01*
Y389850D01*
X173758Y390000D01*
X199681D01*
X200021Y388730D01*
X198552Y387882D01*
X196718Y386048D01*
X195421Y383802D01*
X194750Y381297D01*
Y378703D01*
X195421Y376198D01*
X196718Y373952D01*
X198552Y372118D01*
X200798Y370821D01*
X203303Y370150D01*
X205897D01*
X208402Y370821D01*
X210648Y372118D01*
X212482Y373952D01*
X213779Y376198D01*
X214450Y378703D01*
Y381297D01*
X213779Y383802D01*
X212482Y386048D01*
X210648Y387882D01*
X209179Y388730D01*
X209519Y390000D01*
X225081D01*
X225421Y388730D01*
X223952Y387882D01*
X222118Y386048D01*
X220821Y383802D01*
X220150Y381297D01*
Y378703D01*
X220821Y376198D01*
X222118Y373952D01*
X223952Y372118D01*
X226198Y370821D01*
X228703Y370150D01*
X231297D01*
X233802Y370821D01*
X236048Y372118D01*
X237882Y373952D01*
X239179Y376198D01*
X239850Y378703D01*
Y381297D01*
X239179Y383802D01*
X237882Y386048D01*
X236048Y387882D01*
X234579Y388730D01*
X234919Y390000D01*
X250481D01*
X250821Y388730D01*
X249352Y387882D01*
X247518Y386048D01*
X246221Y383802D01*
X245550Y381297D01*
Y378703D01*
X246221Y376198D01*
X247518Y373952D01*
X249352Y372118D01*
X251598Y370821D01*
X254103Y370150D01*
X256697D01*
X259202Y370821D01*
X261448Y372118D01*
X263282Y373952D01*
X264579Y376198D01*
X265250Y378703D01*
Y381297D01*
X264579Y383802D01*
X263282Y386048D01*
X261448Y387882D01*
X259979Y388730D01*
X260319Y390000D01*
X269742D01*
X270950Y389850D01*
X270950Y388730D01*
Y370150D01*
X290650D01*
X290650Y389850D01*
X291858Y390000D01*
X312381D01*
X312721Y388730D01*
X311252Y387882D01*
X309418Y386048D01*
X308121Y383802D01*
X307450Y381297D01*
Y378703D01*
X308121Y376198D01*
X309418Y373952D01*
X311252Y372118D01*
X313498Y370821D01*
X316003Y370150D01*
X318597D01*
X321102Y370821D01*
X323348Y372118D01*
X325182Y373952D01*
X326479Y376198D01*
X327150Y378703D01*
Y381297D01*
X326479Y383802D01*
X325182Y386048D01*
X323348Y387882D01*
X321879Y388730D01*
X322219Y390000D01*
X331642D01*
X332850Y389850D01*
X332850Y388730D01*
Y370150D01*
X339641D01*
Y353967D01*
X322047Y336373D01*
X320665Y336743D01*
X318822D01*
X317041Y336266D01*
X315445Y335345D01*
X314142Y334041D01*
X313220Y332445D01*
X312743Y330665D01*
Y328822D01*
X313220Y327041D01*
X314142Y325445D01*
X315445Y324142D01*
X317041Y323220D01*
X318822Y322743D01*
X320665D01*
X322445Y323220D01*
X324041Y324142D01*
X325345Y325445D01*
X326266Y327041D01*
X326743Y328822D01*
Y330665D01*
X326373Y332047D01*
X344863Y350537D01*
X344863Y350537D01*
X345526Y351529D01*
X345759Y352700D01*
X345759Y352700D01*
Y370150D01*
X352550D01*
X352550Y389850D01*
X353758Y390000D01*
X429752D01*
X430137Y388730D01*
D02*
G37*
G36*
X570821Y313498D02*
X572118Y311252D01*
X573952Y309418D01*
X576198Y308121D01*
X578703Y307450D01*
X581297D01*
X583802Y308121D01*
X586048Y309418D01*
X586618Y309988D01*
X587791Y309502D01*
Y304017D01*
X584864Y301089D01*
X584011Y301582D01*
X581368Y302290D01*
X581270D01*
Y291900D01*
Y281510D01*
X581368D01*
X584011Y282218D01*
X586380Y283586D01*
X588314Y285520D01*
X588730Y286240D01*
X590000Y285900D01*
Y229158D01*
X589850Y227950D01*
X588730Y227950D01*
X570150D01*
Y208250D01*
X589850Y208250D01*
X590000Y207042D01*
Y197620D01*
X588730Y197279D01*
X587882Y198748D01*
X586048Y200582D01*
X583802Y201879D01*
X581297Y202550D01*
X578703D01*
X576198Y201879D01*
X573952Y200582D01*
X572118Y198748D01*
X570821Y196502D01*
X570150Y193997D01*
Y191403D01*
X570821Y188898D01*
X571206Y188232D01*
X557054Y174080D01*
X555651Y174212D01*
X555601Y174298D01*
X554298Y175601D01*
X552702Y176523D01*
X550922Y177000D01*
X549078D01*
X547298Y176523D01*
X545702Y175601D01*
X544399Y174298D01*
X543477Y172702D01*
X543000Y170922D01*
Y169078D01*
X543477Y167298D01*
X544399Y165702D01*
X545702Y164399D01*
X547298Y163477D01*
X549078Y163000D01*
X550922D01*
X552702Y163477D01*
X554298Y164399D01*
X555601Y165702D01*
X556523Y167298D01*
X556615Y167641D01*
X558000D01*
X558000Y167641D01*
X559170Y167874D01*
X560163Y168537D01*
X575532Y183906D01*
X576198Y183521D01*
X578703Y182850D01*
X581297D01*
X583802Y183521D01*
X586048Y184818D01*
X587882Y186652D01*
X588730Y188121D01*
X590000Y187780D01*
Y172220D01*
X588730Y171879D01*
X587882Y173348D01*
X586048Y175182D01*
X583802Y176479D01*
X581297Y177150D01*
X578703D01*
X576198Y176479D01*
X573952Y175182D01*
X572118Y173348D01*
X570821Y171102D01*
X570150Y168597D01*
Y166003D01*
X570821Y163498D01*
X572118Y161252D01*
X573952Y159418D01*
X576198Y158121D01*
X578703Y157450D01*
X581297D01*
X583802Y158121D01*
X586048Y159418D01*
X587882Y161252D01*
X588730Y162721D01*
X590000Y162381D01*
Y146820D01*
X588730Y146479D01*
X587882Y147948D01*
X586048Y149782D01*
X583802Y151079D01*
X581297Y151750D01*
X578703D01*
X576198Y151079D01*
X573952Y149782D01*
X572118Y147948D01*
X570821Y145702D01*
X570150Y143197D01*
Y140603D01*
X570821Y138098D01*
X572118Y135852D01*
X573952Y134018D01*
X576198Y132721D01*
X576941Y132522D01*
Y99953D01*
X558225Y81237D01*
X556813Y81621D01*
X556523Y82702D01*
X555601Y84298D01*
X554298Y85601D01*
X552702Y86523D01*
X550922Y87000D01*
X549078D01*
X547696Y86630D01*
X538059Y96267D01*
Y255000D01*
X537826Y256171D01*
X537163Y257163D01*
X537163Y257163D01*
X526630Y267696D01*
X527000Y269078D01*
Y270922D01*
X526523Y272702D01*
X525963Y273671D01*
X526691Y274941D01*
X566100D01*
X566100Y274941D01*
X567271Y275174D01*
X568263Y275837D01*
X575137Y282711D01*
X575990Y282218D01*
X578632Y281510D01*
X578730D01*
Y290630D01*
X569610D01*
Y290532D01*
X570318Y287889D01*
X570811Y287036D01*
X564833Y281059D01*
X516686D01*
X515516Y280826D01*
X514523Y280163D01*
X514523Y280163D01*
X475697Y241337D01*
X474527Y241962D01*
X474652Y242594D01*
Y272090D01*
X475892Y272805D01*
X477195Y274108D01*
X478116Y275705D01*
X478593Y277485D01*
Y279328D01*
X478116Y281108D01*
X477195Y282705D01*
X475892Y284008D01*
X474295Y284930D01*
X472515Y285406D01*
X470672D01*
X468892Y284930D01*
X467295Y284008D01*
X465992Y282705D01*
X465070Y281108D01*
X464594Y279328D01*
Y277485D01*
X465070Y275705D01*
X465992Y274108D01*
X467295Y272805D01*
X468535Y272090D01*
Y243861D01*
X461304Y236630D01*
X459921Y237000D01*
X458078D01*
X456298Y236523D01*
X454702Y235601D01*
X453398Y234298D01*
X452683Y233059D01*
X424531D01*
X423360Y232826D01*
X422368Y232163D01*
X422368Y232163D01*
X393264Y203059D01*
X384754D01*
X384228Y204329D01*
X385070Y205170D01*
X385991Y206766D01*
X386468Y208547D01*
Y210390D01*
X385991Y212170D01*
X385070Y213766D01*
X383766Y215070D01*
X382527Y215785D01*
Y217101D01*
X383764Y218338D01*
X385176Y217955D01*
X385466Y216873D01*
X386387Y215277D01*
X387691Y213974D01*
X389287Y213052D01*
X391067Y212575D01*
X392910D01*
X394691Y213052D01*
X396287Y213974D01*
X397590Y215277D01*
X398512Y216873D01*
X398989Y218654D01*
Y220497D01*
X398618Y221879D01*
X490980Y314241D01*
X570622D01*
X570821Y313498D01*
D02*
G37*
G36*
X473400Y363100D02*
X481541D01*
Y335867D01*
X371772Y226098D01*
X370390Y226468D01*
X368547D01*
X367321Y226140D01*
X366484Y227230D01*
X366523Y227298D01*
X367000Y229078D01*
Y230922D01*
X366630Y232304D01*
X447563Y313237D01*
X447563Y313237D01*
X448226Y314230D01*
X448459Y315400D01*
X448459Y315400D01*
Y363525D01*
X449723Y363863D01*
X452277Y365338D01*
X454362Y367423D01*
X455837Y369977D01*
X456600Y372826D01*
Y375775D01*
X455837Y378623D01*
X454362Y381177D01*
X453368Y382171D01*
X453894Y383441D01*
X473400D01*
Y363100D01*
D02*
G37*
G36*
X474399Y225702D02*
X475702Y224399D01*
X477298Y223477D01*
X479078Y223000D01*
X480922D01*
X482304Y223370D01*
X485942Y219733D01*
Y184982D01*
X484672Y184456D01*
X483855Y185272D01*
X482270Y185929D01*
Y181000D01*
X479730D01*
Y185929D01*
X478145Y185272D01*
X476727Y183855D01*
X476187Y182551D01*
X474813D01*
X474273Y183855D01*
X473059Y185069D01*
Y225483D01*
X474329Y225823D01*
X474399Y225702D01*
D02*
G37*
G36*
X324941Y232047D02*
Y126691D01*
X323671Y125963D01*
X322702Y126523D01*
X320922Y127000D01*
X319078D01*
X317298Y126523D01*
X315702Y125601D01*
X314399Y124298D01*
X313683Y123059D01*
X180000D01*
X178829Y122826D01*
X177837Y122163D01*
X177837Y122163D01*
X152304Y96630D01*
X150922Y97000D01*
X149078D01*
X147298Y96523D01*
X145702Y95601D01*
X144399Y94298D01*
X143477Y92702D01*
X143000Y90922D01*
Y89078D01*
X143477Y87298D01*
X144399Y85702D01*
X145702Y84399D01*
X147298Y83477D01*
X149078Y83000D01*
X150922D01*
X152702Y83477D01*
X154298Y84399D01*
X155601Y85702D01*
X156523Y87298D01*
X157000Y89078D01*
Y90922D01*
X156630Y92304D01*
X181267Y116941D01*
X255246D01*
X255772Y115671D01*
X255680Y115580D01*
X254759Y113984D01*
X254282Y112203D01*
Y110360D01*
X254759Y108580D01*
X255680Y106984D01*
X256984Y105680D01*
X258580Y104759D01*
X260360Y104282D01*
X262203D01*
X263984Y104759D01*
X265580Y105680D01*
X266883Y106984D01*
X267599Y108223D01*
X277451D01*
X303370Y82304D01*
X303000Y80922D01*
Y79078D01*
X303477Y77298D01*
X304399Y75702D01*
X305702Y74399D01*
X307298Y73477D01*
X309078Y73000D01*
X310922D01*
X312702Y73477D01*
X314298Y74399D01*
X315601Y75702D01*
X316523Y77298D01*
X317000Y79078D01*
Y80922D01*
X316600Y82414D01*
X316966Y82971D01*
X317029Y83034D01*
X317586Y83400D01*
X319078Y83000D01*
X320922D01*
X322702Y83477D01*
X323671Y84037D01*
X324941Y83309D01*
Y79267D01*
X282304Y36630D01*
X280922Y37000D01*
X279078D01*
X277298Y36523D01*
X275702Y35601D01*
X274399Y34298D01*
X273477Y32702D01*
X273000Y30922D01*
Y29078D01*
X273477Y27298D01*
X274399Y25702D01*
X275702Y24399D01*
X275823Y24329D01*
X275483Y23059D01*
X216317D01*
X215601Y24298D01*
X214298Y25601D01*
X212702Y26523D01*
X210922Y27000D01*
X209078D01*
X207298Y26523D01*
X205702Y25601D01*
X204399Y24298D01*
X203477Y22702D01*
X203187Y21621D01*
X201775Y21237D01*
X113059Y109953D01*
Y143683D01*
X114298Y144399D01*
X115601Y145702D01*
X116523Y147298D01*
X117000Y149078D01*
Y150922D01*
X116523Y152702D01*
X115601Y154298D01*
X114298Y155601D01*
X112702Y156523D01*
X110922Y157000D01*
X109078D01*
X107298Y156523D01*
X105702Y155601D01*
X104399Y154298D01*
X103477Y152702D01*
X103000Y150922D01*
Y149078D01*
X103477Y147298D01*
X104399Y145702D01*
X105702Y144399D01*
X106941Y143683D01*
Y108686D01*
X106941Y108686D01*
X107174Y107516D01*
X107837Y106523D01*
X203187Y11173D01*
X202701Y10000D01*
X10000D01*
Y172381D01*
X11270Y172721D01*
X12118Y171252D01*
X13952Y169418D01*
X16198Y168121D01*
X18703Y167450D01*
X21297D01*
X23802Y168121D01*
X26048Y169418D01*
X27882Y171252D01*
X29179Y173498D01*
X29850Y176003D01*
Y178597D01*
X29179Y181102D01*
X28794Y181768D01*
X42667Y195641D01*
X258700D01*
X258700Y195641D01*
X259870Y195874D01*
X260863Y196537D01*
X297696Y233370D01*
X299078Y233000D01*
X300922D01*
X302702Y233477D01*
X303671Y234037D01*
X304941Y233309D01*
Y227006D01*
X299837Y221902D01*
X299174Y220910D01*
X298941Y219739D01*
X298941Y219739D01*
Y206317D01*
X297702Y205601D01*
X296399Y204298D01*
X295477Y202702D01*
X295000Y200922D01*
Y199078D01*
X295477Y197298D01*
X296399Y195702D01*
X297702Y194399D01*
X299298Y193477D01*
X301079Y193000D01*
X302242D01*
X303188Y191941D01*
X303229Y191776D01*
X303000Y190922D01*
Y189078D01*
X303370Y187696D01*
X268733Y153059D01*
X156317D01*
X155601Y154298D01*
X154298Y155601D01*
X152702Y156523D01*
X150922Y157000D01*
X149078D01*
X147298Y156523D01*
X145702Y155601D01*
X144399Y154298D01*
X143477Y152702D01*
X143000Y150922D01*
Y149078D01*
X143477Y147298D01*
X144399Y145702D01*
X145702Y144399D01*
X147298Y143477D01*
X149078Y143000D01*
X150922D01*
X152702Y143477D01*
X154298Y144399D01*
X155601Y145702D01*
X156317Y146941D01*
X265483D01*
X265823Y145671D01*
X265702Y145601D01*
X264399Y144298D01*
X263477Y142702D01*
X263000Y140922D01*
Y139078D01*
X263477Y137298D01*
X264399Y135702D01*
X265702Y134399D01*
X267298Y133477D01*
X269078Y133000D01*
X270922D01*
X272702Y133477D01*
X274298Y134399D01*
X275601Y135702D01*
X276317Y136941D01*
X295683D01*
X296399Y135702D01*
X297702Y134399D01*
X299298Y133477D01*
X301079Y133000D01*
X302922D01*
X304702Y133477D01*
X306298Y134399D01*
X307602Y135702D01*
X308523Y137298D01*
X309000Y139078D01*
Y140922D01*
X308523Y142702D01*
X307602Y144298D01*
X306298Y145601D01*
X304702Y146523D01*
X303079Y146958D01*
X302801Y147469D01*
X302596Y148270D01*
X307696Y153370D01*
X309078Y153000D01*
X310922D01*
X312702Y153477D01*
X314298Y154399D01*
X315601Y155702D01*
X316523Y157298D01*
X317000Y159078D01*
Y160922D01*
X316523Y162702D01*
X315601Y164298D01*
X314298Y165601D01*
X312702Y166523D01*
X310922Y167000D01*
X309078D01*
X307298Y166523D01*
X305702Y165601D01*
X304399Y164298D01*
X303477Y162702D01*
X303000Y160922D01*
Y159078D01*
X303370Y157696D01*
X298076Y152402D01*
X286974D01*
X286258Y153641D01*
X284955Y154944D01*
X283359Y155866D01*
X282278Y156156D01*
X281894Y157568D01*
X307696Y183370D01*
X309078Y183000D01*
X310922D01*
X312702Y183477D01*
X314298Y184399D01*
X315601Y185702D01*
X316523Y187298D01*
X317000Y189078D01*
Y190922D01*
X316523Y192702D01*
X315601Y194298D01*
X314298Y195601D01*
X312702Y196523D01*
X310922Y197000D01*
X309758D01*
X308813Y198059D01*
X308771Y198224D01*
X309000Y199078D01*
Y200922D01*
X308523Y202702D01*
X307602Y204298D01*
X306298Y205601D01*
X305059Y206317D01*
Y218472D01*
X310163Y223576D01*
X310163Y223576D01*
X310826Y224569D01*
X311059Y225739D01*
Y243314D01*
X312102Y244578D01*
X312371Y244617D01*
X324941Y232047D01*
D02*
G37*
G36*
X314399Y115702D02*
X315702Y114399D01*
X317298Y113477D01*
X319078Y113000D01*
X320922D01*
X322702Y113477D01*
X323671Y114037D01*
X324941Y113309D01*
Y96691D01*
X323671Y95963D01*
X322702Y96523D01*
X320922Y97000D01*
X319078D01*
X318485Y96841D01*
X308342Y106984D01*
X308523Y107298D01*
X309000Y109078D01*
Y110922D01*
X308523Y112702D01*
X307602Y114298D01*
X306298Y115601D01*
X306177Y115671D01*
X306518Y116941D01*
X313683D01*
X314399Y115702D01*
D02*
G37*
G36*
X297823Y115671D02*
X297702Y115601D01*
X296399Y114298D01*
X295477Y112702D01*
X295000Y110922D01*
Y109078D01*
X295477Y107298D01*
X296399Y105702D01*
X297702Y104399D01*
X299298Y103477D01*
X301079Y103000D01*
X302922D01*
X303515Y103159D01*
X313658Y93016D01*
X313477Y92702D01*
X313000Y90922D01*
Y89078D01*
X313400Y87586D01*
X313034Y87029D01*
X312971Y86966D01*
X312414Y86600D01*
X310922Y87000D01*
X309078D01*
X307696Y86630D01*
X280881Y113445D01*
X279889Y114108D01*
X278718Y114340D01*
X278718Y114340D01*
X267599D01*
X266883Y115580D01*
X266792Y115671D01*
X267318Y116941D01*
X297483D01*
X297823Y115671D01*
D02*
G37*
G36*
X590000Y136980D02*
Y10000D01*
X331642D01*
X331156Y11173D01*
X341971Y21988D01*
X343110Y21331D01*
X343000Y20922D01*
Y19078D01*
X343477Y17298D01*
X344399Y15702D01*
X345702Y14399D01*
X347298Y13477D01*
X349078Y13000D01*
X350922D01*
X352702Y13477D01*
X354298Y14399D01*
X355601Y15702D01*
X356317Y16941D01*
X501314D01*
X501314Y16941D01*
X502484Y17174D01*
X503477Y17837D01*
X582163Y96523D01*
X582163Y96524D01*
X582826Y97516D01*
X583059Y98686D01*
X583059Y98687D01*
Y132522D01*
X583802Y132721D01*
X586048Y134018D01*
X587882Y135852D01*
X588730Y137321D01*
X590000Y136980D01*
D02*
G37*
G36*
X326644Y15684D02*
X326149Y15059D01*
X217453D01*
X216721Y16329D01*
X217076Y16941D01*
X326082D01*
X326644Y15684D01*
D02*
G37*
%LPC*%
G36*
X521740Y373030D02*
X511270D01*
Y362560D01*
X511546D01*
X514532Y363360D01*
X517209Y364906D01*
X519394Y367092D01*
X520940Y369769D01*
X521740Y372755D01*
Y373030D01*
D02*
G37*
G36*
X508730D02*
X498260D01*
Y372755D01*
X499060Y369769D01*
X500606Y367092D01*
X502791Y364906D01*
X505468Y363360D01*
X508454Y362560D01*
X508730D01*
Y373030D01*
D02*
G37*
G36*
X21546Y317140D02*
X21270D01*
Y306670D01*
X31740D01*
Y306946D01*
X30940Y309932D01*
X29394Y312609D01*
X27208Y314794D01*
X24532Y316340D01*
X21546Y317140D01*
D02*
G37*
G36*
X213522Y317000D02*
X211679D01*
X209898Y316523D01*
X208302Y315601D01*
X206999Y314298D01*
X206077Y312702D01*
X205600Y310922D01*
Y309078D01*
X205970Y307696D01*
X162251Y263977D01*
X161588Y262984D01*
X161355Y261814D01*
X161355Y261814D01*
Y221517D01*
X160116Y220801D01*
X158812Y219498D01*
X157891Y217902D01*
X157414Y216122D01*
Y214278D01*
X157891Y212498D01*
X158812Y210902D01*
X160116Y209599D01*
X161712Y208677D01*
X163492Y208200D01*
X165335D01*
X167116Y208677D01*
X168712Y209599D01*
X170015Y210902D01*
X170937Y212498D01*
X171414Y214278D01*
Y216122D01*
X170937Y217902D01*
X170015Y219498D01*
X168712Y220801D01*
X167473Y221517D01*
Y260547D01*
X210296Y303370D01*
X211679Y303000D01*
X213522D01*
X215302Y303477D01*
X216898Y304399D01*
X218201Y305702D01*
X219123Y307298D01*
X219600Y309078D01*
Y310922D01*
X219123Y312702D01*
X218201Y314298D01*
X216898Y315601D01*
X215302Y316523D01*
X213522Y317000D01*
D02*
G37*
G36*
X31740Y304130D02*
X21270D01*
Y293660D01*
X21546D01*
X24532Y294460D01*
X27208Y296006D01*
X29394Y298192D01*
X30940Y300868D01*
X31740Y303854D01*
Y304130D01*
D02*
G37*
G36*
Y291740D02*
X21270D01*
Y281270D01*
X31740D01*
Y291740D01*
D02*
G37*
G36*
Y278730D02*
X21270D01*
Y268260D01*
X31740D01*
Y278730D01*
D02*
G37*
G36*
X418730Y386040D02*
X418455D01*
X415469Y385240D01*
X412792Y383694D01*
X410606Y381509D01*
X409060Y378832D01*
X408260Y375846D01*
Y375570D01*
X418730D01*
Y386040D01*
D02*
G37*
G36*
X431740Y373030D02*
X421270D01*
Y362560D01*
X421546D01*
X424532Y363360D01*
X427209Y364906D01*
X429394Y367092D01*
X430940Y369769D01*
X431740Y372755D01*
Y373030D01*
D02*
G37*
G36*
X418730D02*
X408260D01*
Y372755D01*
X409060Y369769D01*
X410606Y367092D01*
X412792Y364906D01*
X415469Y363360D01*
X418455Y362560D01*
X418730D01*
Y373030D01*
D02*
G37*
G36*
X331270Y367466D02*
Y361270D01*
X337466D01*
X337026Y362910D01*
X336034Y364630D01*
X334630Y366034D01*
X332910Y367026D01*
X331270Y367466D01*
D02*
G37*
G36*
X328730D02*
X327090Y367026D01*
X325370Y366034D01*
X323966Y364630D01*
X322974Y362910D01*
X322534Y361270D01*
X328730D01*
Y367466D01*
D02*
G37*
G36*
X337466Y358730D02*
X331270D01*
Y352534D01*
X332910Y352974D01*
X334630Y353966D01*
X336034Y355370D01*
X337026Y357090D01*
X337466Y358730D01*
D02*
G37*
G36*
X328730D02*
X322534D01*
X322929Y357255D01*
X302745Y337071D01*
X301270Y337466D01*
Y331270D01*
X307466D01*
X307071Y332745D01*
X327255Y352929D01*
X328730Y352534D01*
Y358730D01*
D02*
G37*
G36*
X260922Y347000D02*
X259078D01*
X257298Y346523D01*
X255702Y345601D01*
X254399Y344298D01*
X253683Y343059D01*
X226317D01*
X225601Y344298D01*
X224298Y345601D01*
X222702Y346523D01*
X220922Y347000D01*
X219078D01*
X217298Y346523D01*
X215702Y345601D01*
X214399Y344298D01*
X213477Y342702D01*
X213000Y340922D01*
Y339078D01*
X213477Y337298D01*
X214399Y335702D01*
X215702Y334399D01*
X217298Y333477D01*
X219078Y333000D01*
X220922D01*
X222702Y333477D01*
X224298Y334399D01*
X225601Y335702D01*
X226317Y336941D01*
X253683D01*
X254399Y335702D01*
X255702Y334399D01*
X257298Y333477D01*
X259078Y333000D01*
X260922D01*
X262702Y333477D01*
X264298Y334399D01*
X265601Y335702D01*
X266523Y337298D01*
X267000Y339078D01*
Y340922D01*
X266523Y342702D01*
X265601Y344298D01*
X264298Y345601D01*
X262702Y346523D01*
X260922Y347000D01*
D02*
G37*
G36*
X298730Y337466D02*
X297090Y337026D01*
X295370Y336034D01*
X293967Y334630D01*
X292974Y332910D01*
X292534Y331270D01*
X298730D01*
Y337466D01*
D02*
G37*
G36*
X307466Y328730D02*
X301270D01*
Y322534D01*
X302910Y322974D01*
X304630Y323966D01*
X306033Y325370D01*
X307026Y327090D01*
X307466Y328730D01*
D02*
G37*
G36*
X298730D02*
X292534D01*
X292974Y327090D01*
X293967Y325370D01*
X295370Y323966D01*
X297090Y322974D01*
X298730Y322534D01*
Y328730D01*
D02*
G37*
G36*
X405800Y385500D02*
X383400D01*
Y367426D01*
X309151Y293177D01*
X308488Y292184D01*
X308255Y291014D01*
X308255Y291014D01*
Y283225D01*
X308255Y283225D01*
X308488Y282054D01*
X309151Y281062D01*
X313526Y276687D01*
Y274317D01*
X312287Y273601D01*
X310983Y272298D01*
X310062Y270702D01*
X309585Y268921D01*
Y267078D01*
X310062Y265298D01*
X310983Y263702D01*
X312287Y262398D01*
X313883Y261477D01*
X315663Y261000D01*
X317506D01*
X319287Y261477D01*
X320883Y262398D01*
X322186Y263702D01*
X323108Y265298D01*
X323585Y267078D01*
Y268921D01*
X323108Y270702D01*
X322186Y272298D01*
X320883Y273601D01*
X319643Y274317D01*
Y277953D01*
X319643Y277954D01*
X319411Y279124D01*
X318748Y280117D01*
X314373Y284492D01*
Y289747D01*
X387726Y363100D01*
X405800D01*
Y385500D01*
D02*
G37*
G36*
X457730Y185929D02*
X456145Y185272D01*
X454727Y183855D01*
X454071Y182270D01*
X457730D01*
Y185929D01*
D02*
G37*
G36*
Y157730D02*
X454071D01*
X454727Y156145D01*
X456145Y154727D01*
X457730Y154071D01*
Y157730D01*
D02*
G37*
G36*
X510701Y207220D02*
X508858D01*
X507078Y206743D01*
X505482Y205821D01*
X504179Y204518D01*
X503257Y202922D01*
X502780Y201142D01*
Y199298D01*
X503257Y197518D01*
X504179Y195922D01*
X505482Y194619D01*
X506831Y193840D01*
Y156253D01*
X505702Y155601D01*
X504399Y154298D01*
X503477Y152702D01*
X503000Y150922D01*
Y149078D01*
X503477Y147298D01*
X504399Y145702D01*
X505702Y144399D01*
X507298Y143477D01*
X509078Y143000D01*
X510922D01*
X512702Y143477D01*
X514298Y144399D01*
X515601Y145702D01*
X516523Y147298D01*
X517000Y149078D01*
Y150922D01*
X516523Y152702D01*
X515601Y154298D01*
X514298Y155601D01*
X512949Y156381D01*
Y193967D01*
X514078Y194619D01*
X515381Y195922D01*
X516303Y197518D01*
X516780Y199298D01*
Y201142D01*
X516303Y202922D01*
X515381Y204518D01*
X514078Y205821D01*
X512482Y206743D01*
X510701Y207220D01*
D02*
G37*
G36*
X477466Y98730D02*
X471270D01*
Y92534D01*
X472910Y92974D01*
X474630Y93967D01*
X476034Y95370D01*
X477026Y97090D01*
X477466Y98730D01*
D02*
G37*
G36*
X468730D02*
X462534D01*
X462974Y97090D01*
X463966Y95370D01*
X465370Y93967D01*
X467090Y92974D01*
X468730Y92534D01*
Y98730D01*
D02*
G37*
G36*
X578730Y302290D02*
X578632D01*
X575990Y301582D01*
X573620Y300214D01*
X571686Y298279D01*
X570318Y295910D01*
X569610Y293268D01*
Y293170D01*
X578730D01*
Y302290D01*
D02*
G37*
%LPD*%
D12*
X110000Y108686D02*
Y150000D01*
X206686Y12000D02*
X327657D01*
X110000Y108686D02*
X206686Y12000D01*
X327657D02*
X343657Y28000D01*
X358000D01*
X390000Y60000D01*
X438843Y221157D02*
X450157Y209843D01*
X420000Y210000D02*
X430813Y199187D01*
Y190500D02*
Y199187D01*
X291314Y260000D02*
X308000Y243314D01*
X270000Y260000D02*
X291314D01*
X302000Y219739D02*
X308000Y225739D01*
Y243314D01*
X302000Y200000D02*
Y219739D01*
X336000Y184000D02*
Y198433D01*
Y184000D02*
X360000Y160000D01*
Y200000D02*
X394531D01*
X424531Y230000D01*
X459000D01*
X471594Y242594D02*
Y278407D01*
X459000Y230000D02*
X471594Y242594D01*
X280657Y149343D02*
X299343D01*
X310000Y160000D01*
X270000Y140000D02*
X302000D01*
X320000Y90000D02*
Y91000D01*
X302000Y109000D02*
X320000Y91000D01*
X302000Y109000D02*
Y110000D01*
X341500Y98000D02*
X390000Y146500D01*
X341500Y91500D02*
Y98000D01*
X340000Y90000D02*
X341500Y91500D01*
X278718Y111282D02*
X310000Y80000D01*
X261282Y111282D02*
X278718D01*
X350000Y20000D02*
X501314D01*
X580000Y98686D01*
Y141900D01*
X509890Y150110D02*
X510000Y150000D01*
X509890Y150110D02*
Y200110D01*
X509780Y200220D02*
X509890Y200110D01*
X470000Y159000D02*
Y170000D01*
Y100000D02*
Y159000D01*
X220000Y340000D02*
X260000D01*
X164414Y215200D02*
Y261814D01*
X212600Y310000D01*
X311314Y283225D02*
X316585Y277954D01*
Y268000D02*
Y277954D01*
X311314Y283225D02*
Y291014D01*
X394600Y374300D01*
X300000Y330000D02*
X330000Y360000D01*
X354745Y248181D02*
X366867D01*
X350575Y244011D02*
X354745Y248181D01*
X348410Y244011D02*
X350575D01*
X489713Y317300D02*
X580000D01*
X391989Y219575D02*
X489713Y317300D01*
X569150Y357250D02*
X580000Y368100D01*
X569150Y328150D02*
Y357250D01*
Y328150D02*
X580000Y317300D01*
X445400Y315400D02*
Y374300D01*
X360000Y230000D02*
X445400Y315400D01*
X484600Y334600D02*
Y374300D01*
X369468Y219468D02*
X484600Y334600D01*
X379468Y209468D02*
Y218368D01*
X535400Y374300D01*
X270000Y150000D02*
X310000Y190000D01*
X150000Y150000D02*
X270000D01*
X330000Y20000D02*
X430000Y120000D01*
X210000Y20000D02*
X330000D01*
X370000Y140000D02*
Y180000D01*
X360000Y130000D02*
X370000Y140000D01*
X470000Y181000D02*
Y231314D01*
Y170000D02*
Y181000D01*
Y231314D02*
X516686Y278000D01*
X566100D01*
X580000Y291900D01*
X489000Y73250D02*
Y221000D01*
X480000Y230000D02*
X489000Y221000D01*
X520000Y270000D02*
X535000Y255000D01*
Y95000D02*
Y255000D01*
Y95000D02*
X550000Y80000D01*
X558000Y170700D02*
X580000Y192700D01*
X550700Y170700D02*
X558000D01*
X550000Y170000D02*
X550700Y170700D01*
X328000Y78000D02*
Y233314D01*
X280000Y30000D02*
X328000Y78000D01*
X260000Y301314D02*
X328000Y233314D01*
X260000Y301314D02*
Y320000D01*
X580000Y342700D02*
X590850Y331850D01*
Y302750D02*
Y331850D01*
X580000Y291900D02*
X590850Y302750D01*
X580000Y342700D02*
X590850Y353550D01*
Y377192D01*
X581543Y386500D02*
X590850Y377192D01*
X510000Y374300D02*
X522200Y386500D01*
X581543D01*
X497800D02*
X510000Y374300D01*
X432200Y386500D02*
X497800D01*
X420000Y374300D02*
X432200Y386500D01*
X342700Y352700D02*
Y380000D01*
X319743Y329743D02*
X342700Y352700D01*
X230000Y220000D02*
X270000Y260000D01*
X190000Y220000D02*
X230000D01*
X150000Y90000D02*
X180000Y120000D01*
X320000D01*
X20000Y330800D02*
X70000Y280800D01*
Y240000D02*
Y280800D01*
X162700Y380000D02*
X262000Y280700D01*
X269300D01*
X270000Y280000D01*
X20000Y177300D02*
X41400Y198700D01*
X258700D01*
X300000Y240000D01*
X20000Y202700D02*
X242700D01*
X280000Y240000D01*
D48*
X20000Y280000D02*
D03*
D49*
Y305400D02*
D03*
Y330800D02*
D03*
X510000Y374300D02*
D03*
X535400D02*
D03*
X420000D02*
D03*
X445400D02*
D03*
D50*
X580000Y368100D02*
D03*
X20000Y202700D02*
D03*
X580000Y218100D02*
D03*
D51*
X580000Y342700D02*
D03*
Y317300D02*
D03*
Y291900D02*
D03*
X317300Y380000D02*
D03*
X255400D02*
D03*
X230000D02*
D03*
X204600D02*
D03*
X137300D02*
D03*
X72700D02*
D03*
X47300D02*
D03*
X21900D02*
D03*
X20000Y177300D02*
D03*
X580000Y141900D02*
D03*
Y167300D02*
D03*
Y192700D02*
D03*
D52*
X484600Y374300D02*
D03*
X394600D02*
D03*
D53*
X342700Y380000D02*
D03*
X280800D02*
D03*
X162700D02*
D03*
X98100D02*
D03*
D57*
X110000Y150000D02*
D03*
X390000Y60000D02*
D03*
X450157Y209843D02*
D03*
X438843Y221157D02*
D03*
X430813Y190500D02*
D03*
X420000Y210000D02*
D03*
X302000Y200000D02*
D03*
X336000Y198433D02*
D03*
X360000Y200000D02*
D03*
X459000Y230000D02*
D03*
X471594Y278407D02*
D03*
X310000Y160000D02*
D03*
X280657Y149343D02*
D03*
X270000Y140000D02*
D03*
X302000D02*
D03*
Y110000D02*
D03*
X320000Y90000D02*
D03*
X340000D02*
D03*
X390000Y146500D02*
D03*
X261282Y111282D02*
D03*
X310000Y80000D02*
D03*
X350000Y20000D02*
D03*
X509780Y200220D02*
D03*
X510000Y150000D02*
D03*
X470000Y100000D02*
D03*
X260000Y340000D02*
D03*
X220000D02*
D03*
X212600Y310000D02*
D03*
X164414Y215200D02*
D03*
X316585Y268000D02*
D03*
X300000Y330000D02*
D03*
X330000Y360000D02*
D03*
X348410Y244011D02*
D03*
X366867Y248181D02*
D03*
X391989Y219575D02*
D03*
X360000Y230000D02*
D03*
X369468Y219468D02*
D03*
X379468Y209468D02*
D03*
X150000Y150000D02*
D03*
X310000Y190000D02*
D03*
X360000Y160000D02*
D03*
X430000Y120000D02*
D03*
X210000Y20000D02*
D03*
X360000Y130000D02*
D03*
X370000Y180000D02*
D03*
X470000Y170000D02*
D03*
X480000Y230000D02*
D03*
X489000Y73250D02*
D03*
X550000Y80000D02*
D03*
X520000Y270000D02*
D03*
X550000Y170000D02*
D03*
X280000Y30000D02*
D03*
X260000Y320000D02*
D03*
X319743Y329743D02*
D03*
X190000Y220000D02*
D03*
X270000Y260000D02*
D03*
X320000Y120000D02*
D03*
X150000Y90000D02*
D03*
X70000Y240000D02*
D03*
X270000Y280000D02*
D03*
X300000Y240000D02*
D03*
X280000D02*
D03*
D58*
X459000Y159000D02*
D03*
Y170000D02*
D03*
Y181000D02*
D03*
X470000Y159000D02*
D03*
Y170000D02*
D03*
Y181000D02*
D03*
X481000Y159000D02*
D03*
Y170000D02*
D03*
Y181000D02*
D03*
M02*
